<svg xmlns="http://www.w3.org/2000/svg" width="12.097" height="12.097" viewBox="0 0 12.097 12.097">
  <path id="account_2_" data-name="account (2)" d="M.93,12.547a.55.55,0,0,0,1.1,0,4.913,4.913,0,0,1,2.858-4.47,3.826,3.826,0,0,0,4.187,0,5.017,5.017,0,0,1,1.4.976,4.917,4.917,0,0,1,1.45,3.5.55.55,0,0,0,1.1,0,6.009,6.009,0,0,0-1.772-4.276,6.089,6.089,0,0,0-1.3-.981A3.849,3.849,0,1,0,4,7.285,6.012,6.012,0,0,0,.93,12.547ZM6.978,2.1A2.749,2.749,0,1,1,4.228,4.849,2.753,2.753,0,0,1,6.978,2.1Z" transform="translate(-0.93 -1)" fill="#3c4d5d"/>
</svg>
