<svg xmlns="http://www.w3.org/2000/svg" width="7.853" height="6.998" viewBox="0 0 7.853 6.998">
  <g id="Arrow_Outline" data-name="Arrow Outline" transform="translate(-2.764 -4.204)">
    <path id="Tracé_141" data-name="Tracé 141" d="M7.731,5.431H4.3l.348-.517a.455.455,0,0,0-.376-.71h0a.5.5,0,0,0-.387.186L2.816,5.728a.237.237,0,0,0,0,.3l1.07,1.337a.5.5,0,0,0,.387.186h0a.455.455,0,0,0,.376-.71L4.3,6.321H7.731a2,2,0,0,1,0,3.992H6.76a.445.445,0,0,0,0,.89h.97a2.886,2.886,0,0,0,0-5.772Z" transform="translate(0)" fill="#9da5ad"/>
  </g>
</svg>
