<svg xmlns="http://www.w3.org/2000/svg" width="13.895" height="18.524" viewBox="0 0 13.895 18.524">
  <g id="bag" transform="translate(-63.969)">
    <g id="object_4_" transform="translate(63.969 0)">
      <g id="Groupe_172" data-name="Groupe 172">
        <path id="Tracé_170" data-name="Tracé 170" d="M75.676,4.628h-.829V3.911a3.91,3.91,0,0,0-7.82,0h0v.717h-.87a2.19,2.19,0,0,0-2.188,2.188V14.18a4.349,4.349,0,0,0,4.344,4.344H73.52a4.349,4.349,0,0,0,4.344-4.344V6.816A2.19,2.19,0,0,0,75.676,4.628ZM68.3,3.911a2.633,2.633,0,1,1,5.266,0v.72H68.3ZM76.587,14.18a3.07,3.07,0,0,1-3.067,3.067H68.313a3.07,3.07,0,0,1-3.067-3.067V6.816a.912.912,0,0,1,.911-.911h9.519a.912.912,0,0,1,.911.911Z" transform="translate(-63.969 0)" fill="#3c4d5d"/>
      </g>
      <g id="Groupe_173" data-name="Groupe 173" transform="translate(3.058 6.963)">
        <path id="Tracé_171" data-name="Tracé 171" d="M155.678,192.465a.639.639,0,0,0-.638.639v1.356a2.633,2.633,0,0,1-5.266,0V193.1a.638.638,0,1,0-1.277,0v1.356a3.91,3.91,0,0,0,7.82,0V193.1A.639.639,0,0,0,155.678,192.465Z" transform="translate(-148.496 -192.465)" fill="#3c4d5d"/>
      </g>
    </g>
  </g>
</svg>
