<svg xmlns="http://www.w3.org/2000/svg" width="22.61" height="18.356" viewBox="0 0 22.61 18.356">
  <g id="camera-to-take-photos_3_" data-name="camera-to-take-photos (3)" transform="translate(0 -3.522)">
    <path id="Tracé_123" data-name="Tracé 123" d="M19.891,6.576H16.622V6.24A2.719,2.719,0,0,0,13.9,3.522h-5.2A2.719,2.719,0,0,0,5.988,6.24v.336H2.718A2.718,2.718,0,0,0,0,9.294V19.16a2.719,2.719,0,0,0,2.718,2.718H19.892A2.719,2.719,0,0,0,22.61,19.16V9.294A2.72,2.72,0,0,0,19.891,6.576ZM11.3,19.058a5.134,5.134,0,1,1,5.134-5.134A5.139,5.139,0,0,1,11.3,19.058Zm2.718-5.134A2.718,2.718,0,1,1,11.3,11.206,2.723,2.723,0,0,1,14.022,13.924Z" fill="#fff"/>
  </g>
</svg>
