<svg xmlns="http://www.w3.org/2000/svg" width="16.402" height="14.375" viewBox="0 0 16.402 14.375">
  <g id="chatting_1_" data-name="chatting (1)" transform="translate(0 -31.626)">
    <path id="Tracé_71" data-name="Tracé 71" d="M0,41.794a.481.481,0,0,0,.76.391L3.4,40.3a1.293,1.293,0,0,1,.755-.242h5.81A1.857,1.857,0,0,0,11.822,38.2v-6.1a.481.481,0,0,0-.481-.481H1.855A1.857,1.857,0,0,0,0,33.481Zm.961-8.313a.9.9,0,0,1,.894-.894h9.006V38.2a.9.9,0,0,1-.894.894H4.156a2.248,2.248,0,0,0-1.313.42L.961,40.861Z" fill="#3c4d5d"/>
    <path id="Tracé_72" data-name="Tracé 72" d="M154.792,149.821a1.857,1.857,0,0,0-1.855-1.855h-1.284a.481.481,0,1,0,0,.961h1.284a.9.9,0,0,1,.894.894v7.38l-1.882-1.343a2.248,2.248,0,0,0-1.313-.42h-5.811a.9.9,0,0,1-.894-.894v-.431a.481.481,0,0,0-.961,0v.431a1.857,1.857,0,0,0,1.855,1.855h5.811a1.292,1.292,0,0,1,.755.242l2.642,1.885a.481.481,0,0,0,.76-.391v-8.313Z" transform="translate(-138.39 -112.613)" fill="#3c4d5d"/>
    <path id="Tracé_73" data-name="Tracé 73" d="M93.343,114.3h5.552a.481.481,0,1,0,0-.961H93.343a.481.481,0,1,0,0,.961Z" transform="translate(-89.887 -79.095)" fill="#3c4d5d"/>
    <path id="Tracé_74" data-name="Tracé 74" d="M93.343,184.3h5.552a.481.481,0,1,0,0-.961H93.343a.481.481,0,1,0,0,.961Z" transform="translate(-89.887 -146.853)" fill="#3c4d5d"/>
  </g>
</svg>
