<svg xmlns="http://www.w3.org/2000/svg" width="15.412" height="13.412" viewBox="0 0 15.412 13.412">
  <g id="clothing-store" transform="translate(0)">
    <path id="Tracé_89" data-name="Tracé 89" d="M14.945,12.509h-.451V4.791a1.872,1.872,0,0,0,.688-2.512L14.163.25a.451.451,0,0,0-.4-.25H1.716a.451.451,0,0,0-.4.24L.219,2.311A1.871,1.871,0,0,0,.9,4.778v7.731H.451a.452.452,0,0,0,0,.9H14.945a.452.452,0,0,0,0-.9ZM1.987.9H13.48l.9,1.8a.054.054,0,0,0,.013.016.953.953,0,0,1,.115.456,1,1,0,0,1-2,0,.451.451,0,1,0-.9,0,1,1,0,0,1-2,0,.451.451,0,1,0-.9,0,1,1,0,0,1-2,0,.451.451,0,1,0-.9,0,1,1,0,0,1-2,0,.451.451,0,1,0-.9,0,1,1,0,0,1-2,0,.954.954,0,0,1,.114-.456c.007-.013.013-.025.018-.038ZM1.806,5.06l.1,0A1.906,1.906,0,0,0,3.357,4.4a1.912,1.912,0,0,0,2.9,0,1.912,1.912,0,0,0,2.9,0,1.912,1.912,0,0,0,2.9,0,1.906,1.906,0,0,0,1.45.666l.08,0v7.449H1.806Z" transform="translate(0 0)" fill="#3c4d5d"/>
  </g>
</svg>
