<svg xmlns="http://www.w3.org/2000/svg" width="16.845" height="16.844" viewBox="0 0 16.845 16.844">
  <g id="customer_5_" data-name="customer (5)" transform="translate(0 -0.013)">
    <g id="Groupe_89" data-name="Groupe 89" transform="translate(0 7.776)">
      <g id="Groupe_88" data-name="Groupe 88" transform="translate(0)">
        <path id="Tracé_83" data-name="Tracé 83" d="M16.318,236.506a1.48,1.48,0,0,0-2.038.123l-1.45,1.557a1.483,1.483,0,0,0-1.414-1.042H8.827c-.2,0-.262-.075-.6-.338a3.462,3.462,0,0,0-4.552.011l-.951.838a1.474,1.474,0,0,0-1.357-.017l-1.091.545a.494.494,0,0,0-.221.662l2.961,5.922a.494.494,0,0,0,.662.221l1.091-.546a1.479,1.479,0,0,0,.818-1.376h5.832a3.471,3.471,0,0,0,2.763-1.382l2.369-3.159A1.476,1.476,0,0,0,16.318,236.506ZM4.325,243.56l-.65.325-2.52-5.039.65-.325a.493.493,0,0,1,.662.221L4.546,242.9A.493.493,0,0,1,4.325,243.56Zm11.434-5.626-2.369,3.159a2.479,2.479,0,0,1-1.974.987H5.24l-1.849-3.7.934-.822a2.473,2.473,0,0,1,3.26,0,1.747,1.747,0,0,0,1.243.573h2.588a.493.493,0,1,1,0,.987H8.9a.493.493,0,0,0,0,.987h2.851a1.485,1.485,0,0,0,1.083-.471L15,237.3a.493.493,0,0,1,.756.632Z" transform="translate(0 -235.959)" fill="#3c4d5d"/>
      </g>
    </g>
    <g id="Groupe_91" data-name="Groupe 91" transform="translate(5.955 0.013)">
      <g id="Groupe_90" data-name="Groupe 90" transform="translate(0 0)">
        <path id="Tracé_84" data-name="Tracé 84" d="M185.416,3.38a1.966,1.966,0,0,0,.546-1.361A2,2,0,0,0,183.988.013a2.033,2.033,0,0,0-2.007,2.007,1.937,1.937,0,0,0,.564,1.365A3.01,3.01,0,0,0,180.994,6v.493a.494.494,0,0,0,.493.493h4.968a.494.494,0,0,0,.493-.493V6A3.008,3.008,0,0,0,185.416,3.38ZM183.988,1a1.017,1.017,0,0,1,.987,1.02.988.988,0,0,1-.987.987,1.017,1.017,0,0,1-1.02-.987A1.047,1.047,0,0,1,183.988,1Zm-2.007,5a2.033,2.033,0,0,1,2.007-2.007A1.993,1.993,0,0,1,185.962,6Z" transform="translate(-180.994 -0.013)" fill="#3c4d5d"/>
      </g>
    </g>
  </g>
</svg>
