<svg xmlns="http://www.w3.org/2000/svg" width="13.147" height="13.147" viewBox="0 0 13.147 13.147">
  <path id="deadline" d="M8.756,6.7a.514.514,0,0,1,.514.514V8.767a.514.514,0,0,1-.183.393l-.823.692A.514.514,0,0,1,7.6,9.066l.64-.538V7.215A.514.514,0,0,1,8.756,6.7Zm3.877-2.028a.514.514,0,0,0-.514.514v.79a4.379,4.379,0,1,0-3.364,7.17,4.422,4.422,0,0,0,1.908-.433l.03-.014.008,0c.069-.034.138-.069.205-.107a.514.514,0,0,0-.5-.9A3.357,3.357,0,1,1,8.744,5.415,3.35,3.35,0,0,1,11.4,6.727h-.8a.514.514,0,0,0,0,1.027h1a1.542,1.542,0,0,0,1.541-1.541V5.187A.514.514,0,0,0,12.633,4.673ZM12.266,10.5a.514.514,0,1,0,.139.713A.513.513,0,0,0,12.266,10.5Zm.863-1.588c0-.016-.007-.033-.012-.049s-.011-.032-.017-.047a.5.5,0,0,0-.022-.046c-.008-.015-.016-.029-.026-.043a.481.481,0,0,0-.03-.041.507.507,0,0,0-.071-.071.47.47,0,0,0-.041-.03l-.043-.026-.045-.022-.047-.017-.049-.012-.05-.007a.5.5,0,0,0-.1,0l-.05.007-.049.012-.047.017a.47.47,0,0,0-.045.022.452.452,0,0,0-.043.026.428.428,0,0,0-.041.03.48.48,0,0,0-.038.034.466.466,0,0,0-.034.038.518.518,0,0,0-.055.084.5.5,0,0,0-.022.046c-.006.015-.012.031-.017.047s-.009.032-.012.049a.513.513,0,0,0,0,.2c0,.016.008.033.012.049s.011.032.017.047a.5.5,0,0,0,.022.046c.008.015.016.029.026.043a.478.478,0,0,0,.03.041.465.465,0,0,0,.034.038.481.481,0,0,0,.038.034.466.466,0,0,0,.041.03.453.453,0,0,0,.043.026.471.471,0,0,0,.045.022l.047.017.049.012.05.007.051,0,.05,0,.05-.007.049-.012.047-.017.045-.022.043-.026c.014-.009.028-.019.041-.03a.507.507,0,0,0,.071-.071.481.481,0,0,0,.03-.041c.009-.014.018-.029.026-.043a.5.5,0,0,0,.022-.046c.006-.015.012-.031.017-.047s.009-.033.012-.049a.509.509,0,0,0,.008-.151A.5.5,0,0,0,13.129,8.912ZM4.211,12.12H2.054a1.028,1.028,0,0,1-1.027-1.027V3.081A1.028,1.028,0,0,1,2.054,2.054H2.7v.514a.514.514,0,1,0,1.027,0V2.054H6.034v.514a.514.514,0,1,0,1.027,0V2.054H9.4v.514a.514.514,0,0,0,1.027,0V2.054h.668A1.028,1.028,0,0,1,12.12,3.081a.514.514,0,1,0,1.027,0,2.056,2.056,0,0,0-2.054-2.054h-.668V.514A.514.514,0,0,0,9.4.514v.514H7.061V.514a.514.514,0,1,0-1.027,0v.514H3.723V.514A.514.514,0,1,0,2.7.514v.514H2.054A2.056,2.056,0,0,0,0,3.081v8.011a2.056,2.056,0,0,0,2.054,2.054H4.211a.514.514,0,1,0,0-1.027Zm0,0" fill="#3c4d5d"/>
</svg>
