<svg xmlns="http://www.w3.org/2000/svg" width="19.884" height="16.57" viewBox="0 0 19.884 16.57">
  <g id="direct-download_2_" data-name="direct-download (2)" transform="translate(0 -2)">
    <path id="Tracé_139" data-name="Tracé 139" d="M10.971,13.6a.62.62,0,0,1-.449-.192L6.172,8.85A.622.622,0,0,1,6.621,7.8H8.9V3.036A1.037,1.037,0,0,1,9.935,2h2.071a1.037,1.037,0,0,1,1.036,1.036V7.8h2.278A.622.622,0,0,1,15.77,8.85l-4.35,4.557A.62.62,0,0,1,10.971,13.6Z" transform="translate(-1.029)" fill="#1376a3"/>
    <path id="Tracé_140" data-name="Tracé 140" d="M18.434,21.314H1.45A1.451,1.451,0,0,1,0,19.864V19.45A1.451,1.451,0,0,1,1.45,18H18.434a1.451,1.451,0,0,1,1.45,1.45v.414A1.451,1.451,0,0,1,18.434,21.314Z" transform="translate(0 -2.744)" fill="#1376a3"/>
  </g>
</svg>
