<svg xmlns="http://www.w3.org/2000/svg" width="15.073" height="15.073" viewBox="0 0 15.073 15.073">
  <path id="edit" d="M6.064,15.073H3.533A3.537,3.537,0,0,1,0,11.54V3.533A3.537,3.537,0,0,1,3.533,0H11.54a3.537,3.537,0,0,1,3.533,3.533V6.477a.589.589,0,1,1-1.178,0V3.533A2.358,2.358,0,0,0,11.54,1.178H3.533A2.358,2.358,0,0,0,1.178,3.533V11.54A2.358,2.358,0,0,0,3.533,13.9H6.064a.589.589,0,0,1,0,1.178ZM6.859,4.121A1.766,1.766,0,1,0,5.093,5.888,1.768,1.768,0,0,0,6.859,4.121Zm-1.178,0a.589.589,0,1,1-.589-.589A.589.589,0,0,1,5.682,4.121Zm7.036,1.59a.589.589,0,0,0-.589-.589H8.478a.589.589,0,0,0,0,1.178h3.65A.589.589,0,0,0,12.718,5.711ZM8.361,9.833a.589.589,0,0,0-.589-.589h-4.3a.589.589,0,0,0,0,1.178h4.3A.589.589,0,0,0,8.361,9.833ZM6.006,11.893a.589.589,0,0,0-.589-.589H3.474a.589.589,0,0,0,0,1.178H5.417A.589.589,0,0,0,6.006,11.893Zm2.529,3.168,1.668-.333a4.245,4.245,0,0,0,2.176-1.165L14.443,11.5A2.149,2.149,0,1,0,11.4,8.46L9.34,10.524A4.245,4.245,0,0,0,8.176,12.7l-.333,1.668a.589.589,0,0,0,.693.693Zm5.076-5.768a.971.971,0,0,1,0,1.374l-2.064,2.064a3.07,3.07,0,0,1-1.574.842l-.8.16.16-.8a3.07,3.07,0,0,1,.842-1.574l2.064-2.064a.971.971,0,0,1,1.374,0ZM12.129,4.239H8.478a.589.589,0,1,1,0-1.178h3.65a.589.589,0,0,1,0,1.178ZM7.089,8.05a.589.589,0,0,0-.039-.832,2.623,2.623,0,0,0-1.77-.683H4.906a2.623,2.623,0,0,0-1.77.683.589.589,0,0,0,.793.871,1.448,1.448,0,0,1,.977-.377H5.28a1.448,1.448,0,0,1,.977.377.589.589,0,0,0,.832-.039Z" fill="#3c4d5d"/>
</svg>
