<svg xmlns="http://www.w3.org/2000/svg" width="19.987" height="19.992" viewBox="0 0 19.987 19.992">
  <g id="Layer_92" data-name="Layer 92" transform="translate(-2.013 -2.008)">
    <path id="Tracé_252" data-name="Tracé 252" d="M21.1,2.9a3,3,0,0,0-4.27,0L14.91,4.85l4.24,4.24,1.92-1.92A3,3,0,0,0,21.1,2.9Z" fill="#9b9ea6"/>
    <path id="Tracé_253" data-name="Tracé 253" d="M13.49,6.27,5.1,14.66a1.15,1.15,0,0,0-.19.26L2.13,20.53A1,1,0,0,0,3.44,21.9l5.61-2.78a1.15,1.15,0,0,0,.26-.19l8.39-8.39Z" fill="#9b9ea6"/>
    <path id="Tracé_254" data-name="Tracé 254" d="M21,22H12a1,1,0,0,1,0-2h9a1,1,0,0,1,0,2Z" fill="#9b9ea6"/>
  </g>
</svg>
