<svg xmlns="http://www.w3.org/2000/svg" width="15.764" height="15.826" viewBox="0 0 15.764 15.826">
  <g id="file_5_" data-name="file (5)" transform="translate(-1)">
    <path id="Tracé_120" data-name="Tracé 120" d="M16.628,3.227,13.537.136A.464.464,0,0,0,13.209,0H6.1A1.393,1.393,0,0,0,4.709,1.391V7.506a4.173,4.173,0,0,0,.464,8.32h10.2a1.393,1.393,0,0,0,1.391-1.391V3.555a.464.464,0,0,0-.136-.328ZM13.673,1.583,14.68,2.59l.5.5H13.673ZM1.927,11.653A3.246,3.246,0,1,1,5.173,14.9,3.249,3.249,0,0,1,1.927,11.653ZM15.373,14.9H7.792A4.171,4.171,0,0,0,9.32,12.117h4.817a.464.464,0,1,0,0-.927H9.32a4.147,4.147,0,0,0-.679-1.855h5.5a.464.464,0,1,0,0-.927H7.792a4.154,4.154,0,0,0-2.156-.9V1.391A.464.464,0,0,1,6.1.927h6.646V3.555a.464.464,0,0,0,.464.464h2.627V14.435A.464.464,0,0,1,15.373,14.9Z" fill="#3c4d5d"/>
    <path id="Tracé_121" data-name="Tracé 121" d="M198.264,182h-6.8a.464.464,0,0,0,0,.927h6.8a.464.464,0,0,0,0-.927Z" transform="translate(-184.127 -176.374)" fill="#3c4d5d"/>
    <path id="Tracé_122" data-name="Tracé 122" d="M73.882,335.137a.464.464,0,0,0-.656,0l-1.836,1.836-.6-.6a.464.464,0,0,0-.656.656l.927.927a.464.464,0,0,0,.656,0l2.164-2.164A.464.464,0,0,0,73.882,335.137Z" transform="translate(-66.867 -324.646)" fill="#3c4d5d"/>
  </g>
</svg>
