<svg xmlns="http://www.w3.org/2000/svg" width="10.974" height="10.518" viewBox="0 0 10.974 10.518">
  <g id="Layer_2" data-name="Layer 2" transform="translate(-1.79 -2.741)">
    <path id="Tracé_86" data-name="Tracé 86" d="M4.279,13.259a.641.641,0,0,1-.629-.772l.513-3L1.983,7.367a.641.641,0,0,1,.355-1.092l3.006-.436L6.69,3.107a.641.641,0,0,1,1.158,0L9.2,5.839l3.013.44a.641.641,0,0,1,.355,1.092L10.391,9.5l.505,2.99a.641.641,0,0,1-.922.679l-2.7-1.416-2.7,1.416a.637.637,0,0,1-.293.093ZM2.716,7,4.753,8.988a.637.637,0,0,1,.185.567l-.482,2.8,2.52-1.323a.641.641,0,0,1,.594,0l2.52,1.323L9.607,9.551a.637.637,0,0,1,.185-.567L11.83,7,9.013,6.588a.641.641,0,0,1-.482-.351L7.273,3.69,6.015,6.24a.641.641,0,0,1-.482.351Z" fill="#3c4d5d"/>
  </g>
</svg>
