<svg xmlns="http://www.w3.org/2000/svg" width="15.026" height="15.03" viewBox="0 0 15.026 15.03">
  <g id="Layer_92" data-name="Layer 92" transform="translate(-2.013 -2.008)">
    <path id="Tracé_127" data-name="Tracé 127" d="M19.563,2.678a2.255,2.255,0,0,0-3.21,0L14.91,4.144,18.1,7.332l1.443-1.443a2.255,2.255,0,0,0,.023-3.21Z" transform="translate(-3.202)" fill="#1376a3"/>
    <path id="Tracé_128" data-name="Tracé 128" d="M10.641,6.27,4.334,12.577a.865.865,0,0,0-.143.2L2.1,16.99a.748.748,0,0,0,.985,1.03L7.3,15.93a.864.864,0,0,0,.2-.143L13.806,9.48Z" transform="translate(0 -1.058)" fill="#1376a3"/>
    <path id="Tracé_129" data-name="Tracé 129" d="M18.518,21.5H11.752a.752.752,0,0,1,0-1.5h6.766a.752.752,0,1,1,0,1.5Z" transform="translate(-2.231 -4.466)" fill="#1376a3"/>
  </g>
</svg>
