<svg xmlns="http://www.w3.org/2000/svg" width="12.587" height="17.901" viewBox="0 0 12.587 17.901">
  <g id="location_3_" data-name="location (3)" transform="translate(-76)">
    <path id="Tracé_52" data-name="Tracé 52" d="M81.857,17.667a.524.524,0,0,0,.873,0c1.241-1.862,3.069-4.161,4.343-6.5a10.419,10.419,0,0,0,1.514-4.875A6.293,6.293,0,1,0,76,6.293a10.419,10.419,0,0,0,1.514,4.875C78.787,13.5,80.618,15.81,81.857,17.667Zm.436-16.619a5.25,5.25,0,0,1,5.244,5.244,9.438,9.438,0,0,1-1.386,4.373,65.963,65.963,0,0,1-3.858,5.779,65.964,65.964,0,0,1-3.858-5.779,9.438,9.438,0,0,1-1.386-4.373,5.25,5.25,0,0,1,5.244-5.244Z" fill="#fff"/>
    <path id="Tracé_53" data-name="Tracé 53" d="M169.147,96.293A3.147,3.147,0,1,0,166,93.147,3.15,3.15,0,0,0,169.147,96.293Zm0-5.244a2.1,2.1,0,1,1-2.1,2.1A2.1,2.1,0,0,1,169.147,91.049Z" transform="translate(-86.853 -86.853)" fill="#fff"/>
  </g>
</svg>
