<svg xmlns="http://www.w3.org/2000/svg" width="192" height="32.903" viewBox="0 0 192 32.903">
  <g id="Groupe_92" data-name="Groupe 92" transform="translate(70.29 168)">
    <path id="Tracé_90" data-name="Tracé 90" d="M202.58,446.79v15.331h-2.09V448.85l-6.461,11.744-6.789-10.358v11.882h-.94V446.79h1.668l6.85,10.407,5.733-10.407Z" transform="translate(-256.59 -614.349)" fill="#f16032"/>
    <path id="Tracé_91" data-name="Tracé 91" d="M260.525,462.153h-2.531l-.11-.266-.958-2.449-.236-.56h-8.068l-.245.56-1,2.449-.1.266H246.25l.217-.542,5.626-13.887.343-.885h2.072l.1.263,5.705,14.508Zm-11.536-4.23h7.346l-.2-.539-3.446-8.754-3.645,9.137Z" transform="translate(-298.191 -614.384)" fill="#f16032"/>
    <path id="Tracé_92" data-name="Tracé 92" d="M308.4,458.584c0,2.926-3.061,3.979-5.9,3.979-2.978,0-5.124-1.24-5.727-3.691l1.478-.306c.364,1.631,1.57,3.061,4.643,3.061,1.836,0,3.446-1.117,3.459-2.834s-1.836-2.289-4.521-3.257c-2.366-.857-5.237-1.769-5.237-4.619,0-1.567,1.631-4.046,5.509-4.046a6.5,6.5,0,0,1,5.794,2.822l-1.383.53a5.143,5.143,0,0,0-4.38-2.534c-3.3,0-3.728,2.341-3.538,3.171.352,1.53,1.98,1.91,4.561,2.843C305.592,454.583,308.4,455.982,308.4,458.584Z" transform="translate(-333.123 -614.405)" fill="#f16032"/>
    <path id="Tracé_93" data-name="Tracé 93" d="M349.481,446.64l-.306.943h-5.362v14.432h-2.326V447.583H336.1l-.306-.943Z" transform="translate(-360.324 -614.245)" fill="#f16032"/>
    <path id="Tracé_94" data-name="Tracé 94" d="M388.277,461.131h8.289l-.75,1H386V446.81h10.762l-.918.946h-7.566v4.4h0v.732h8.172l-.75.94H388.28V455h0v1.469h0Z" transform="translate(-395.166 -614.363)" fill="#f16032"/>
    <path id="Tracé_95" data-name="Tracé 95" d="M438.344,457.628c-.214.113-.416.208-.416.208l2.418,3.658.407.612h-2.859l-.129-.205L435.93,459a1.249,1.249,0,0,0-1.077-.575h-4.126v3.673H428.4v-15.3h6.039c3.5,0,6.685,2.565,6.685,5.73v.171A5.377,5.377,0,0,1,438.344,457.628Zm.432-4.9v-.19c0-2.755-1.6-4.971-4.349-4.971h-3.7V457.7h3.716c2.727-.012,4.334-2.234,4.334-4.98Z" transform="translate(-424.588 -614.349)" fill="#f16032"/>
    <path id="Tracé_96" data-name="Tracé 96" d="M585.937,459.712l.68.7a8.139,8.139,0,0,1-4.285,1.224,7.945,7.945,0,1,1,.009-15.87,8.133,8.133,0,0,1,4.753,1.53l-.949.976a6.621,6.621,0,0,0-5.124-1.439c-3.572.551-5.39,4.077-4.661,7.863s3.731,6.428,7.3,5.864A6.009,6.009,0,0,0,585.937,459.712Z" transform="translate(-525.623 -613.641)" fill="#f16032"/>
    <path id="Tracé_97" data-name="Tracé 97" d="M632.774,453.681a7.823,7.823,0,1,1-7.845-7.931A8.041,8.041,0,0,1,632.774,453.681Zm-2.339-1.12c-.67-3.786-3.431-6.278-6.734-5.73s-4.867,4.077-4.2,7.863,3.339,6.428,6.633,5.864S631.109,456.331,630.435,452.56Z" transform="translate(-555.552 -613.628)" fill="#f16032"/>
    <path id="Tracé_98" data-name="Tracé 98" d="M683.925,462.153h-2.537l-.11-.266-.955-2.449-.236-.56h-8.071l-.239.56-1,2.449-.1.266H669.65l.214-.542,5.629-13.887.343-.885H677.9l.107.263,5.705,14.508Zm-11.536-4.23h7.346l-.2-.539-3.45-8.754-3.642,9.137Z" transform="translate(-591.997 -614.384)" fill="#f16032"/>
    <path id="Tracé_99" data-name="Tracé 99" d="M729.62,459.289l.68.7a8.141,8.141,0,0,1-4.285,1.224,7.942,7.942,0,1,1,0-15.864,8.126,8.126,0,0,1,4.753,1.53l-.949.976a6.6,6.6,0,0,0-5.124-1.439c-3.572.551-5.387,4.077-4.655,7.863s3.725,6.428,7.3,5.865A6.009,6.009,0,0,0,729.62,459.289Zm17.416-13.55v15.4h-2.341v-6.06a.138.138,0,0,0-.187-.119,10.242,10.242,0,0,1-3.551.7h-.128a16.175,16.175,0,0,1-4.717-.826.141.141,0,0,0-.181.122v6.18h-2.338v-6.651a.129.129,0,0,0-.1-.122,9.868,9.868,0,0,0-7.811.444l-.591-.86a11.037,11.037,0,0,1,8.325-.64.141.141,0,0,0,.181-.122v-7.444h2.335v7.909a.129.129,0,0,0,.1.122,16.227,16.227,0,0,0,4.824.918,9.6,9.6,0,0,0,3.841-.848v-8.108h2Z" transform="translate(-625.326 -613.35)" fill="#f16032"/>
    <path id="Tracé_100" data-name="Tracé 100" d="M507.681,466.4c-.216-2.053-.414-4.185-.62-6.691l-.8-.177,0,.023c-.909-.176-1.824-.386-2.709-.589l-.8-.182-1.146-.259,2.2-.948,2.927,1.183-.026.087,1.067.237.023.281c.215,2.622.419,4.832.642,6.955Z" transform="translate(-475.389 -621.833)" fill="#f16032"/>
    <path id="Tracé_101" data-name="Tracé 101" d="M503.813,463.009a.466.466,0,0,1-.207-.052c-.033-.016-.072-.038-.123-.069-.082-.05-.2-.124-.337-.221-.267-.181-.636-.443-1.04-.735-.716-.519-1.7-1.256-2.319-1.766l-.568-.469.71-.195c.277-.076.559-.155.832-.232a17.341,17.341,0,0,1,7.194-.963q.215-.181.433-.356l.026-.021.029-.016c.428-.237.866-.472,1.29-.7.816-.437,1.658-.889,2.47-1.38l.708-2.161,1.046.305c-.116-.476-.254-.953-.39-1.418-.091-.312-.183-.631-.27-.952-.877.421-1.689.791-2.61,1.211l-1.8.845-1.713-7.157.744-.178,1.494,6.243.953-.448c1.062-.484,1.979-.9,3.015-1.407l.426-.207.113.46c.113.458.248.925.38,1.377.2.684.4,1.391.543,2.107l.119.616-1.557-.455-.565,1.725-.12.073c-.867.531-1.762,1.011-2.628,1.475-.412.221-.837.449-1.251.678-1.029.832-2.028,1.776-2.995,2.691-.579.547-1.177,1.113-1.779,1.653h0A.386.386,0,0,1,503.813,463.009Zm-2.96-2.971c1.02.794,2.391,1.782,2.907,2.12.527-.478,1.052-.974,1.562-1.457.6-.569,1.214-1.149,1.843-1.709a11.608,11.608,0,0,0-2.709.165,34.119,34.119,0,0,0-3.487.849Z" transform="translate(-473.731 -614.029)" fill="#f16032"/>
    <path id="Tracé_102" data-name="Tracé 102" d="M525.371,468.427a5.447,5.447,0,0,1-.383,1.46,8.321,8.321,0,0,1-.728,1.283c-.248.425-.5.851-.768,1.27s-.545.829-.845,1.224l-.067-.037c.193-.456.392-.918.572-1.365l.56-1.365a7.659,7.659,0,0,1,.612-1.356,4.373,4.373,0,0,1,1-1.151Z" transform="translate(-489.942 -629.338)" fill="#f16032"/>
    <path id="Tracé_103" data-name="Tracé 103" d="M501.558,450.882c.113-.5.22-.979.306-1.448l.285-1.371a5.282,5.282,0,0,1,.19-.612l.2-.612.41-1.224v.239a.34.34,0,0,0,.129.187.256.256,0,0,0,.052.034h.028l.061.018h0l-.116.018-.266.058-.551.135-1.1.306-2.216.627c-1.481.419-2.957.848-4.466,1.224l.049-.728c1.148.447,2.283.9,3.416,1.365l.851.343.881.468C500.3,450.236,500.918,450.56,501.558,450.882Zm0,0-1.72-.428-.918-.227-.918-.352c-1.246-.459-2.488-.934-3.722-1.414l-1.129-.441,1.181-.288c1.475-.361,2.954-.79,4.432-1.206l2.222-.631,1.117-.306.572-.141c.095-.021.193-.043.306-.061.052,0,.1-.021.165-.028h.239l.077.024.037.015a.385.385,0,0,1,.061.04.42.42,0,0,1,.141.2l.034.119-.043.116-.487,1.353-.242.673c-.089.217-.141.468-.248.667Z" transform="translate(-469.52 -613.357)" fill="#f16032"/>
    <path id="Tracé_105" data-name="Tracé 105" d="M344.077,9.122h-.765V4.9l-2.772.935-.244-.725,3.781-1.275Z" transform="translate(-306.429 -170.667)" fill="#f16032"/>
    <path id="Tracé_106" data-name="Tracé 106" d="M348.919,26.924,346.14,24.39l3.235,1.919Z" transform="translate(-310.484 -184.928)" fill="#f16032"/>
    <path id="Tracé_107" data-name="Tracé 107" d="M355.266,523.14l.306,1.328h-2.348v2.654h2.335v1.286h-2.335v3.584h-1.46v-3.584h-.545v-1.286h.545v-3.979Z" transform="translate(-371.032 -667.33)" fill="#f3bbc3"/>
    <path id="Tracé_108" data-name="Tracé 108" d="M371.19,523.14v8.852h-1.42V523.14Z" transform="translate(-383.904 -667.33)" fill="#f3bbc3"/>
    <path id="Tracé_109" data-name="Tracé 109" d="M379.9,522.58l4.616,5.466v-5.32h1.408v9.02h-.239l-4.631-5.546v5.4H379.61V522.58Z" transform="translate(-390.732 -666.942)" fill="#f3bbc3"/>
    <path id="Tracé_110" data-name="Tracé 110" d="M407.462,523.224a4.414,4.414,0,0,1,1.925.37,4.561,4.561,0,0,1,2.574,4.114,4.2,4.2,0,0,1-2.755,4.046,5.038,5.038,0,0,1-1.836.306H405.5v-8.837Zm-.239,7.5a3.524,3.524,0,0,0,1.126-.144,3.009,3.009,0,0,0,2.112-2.908,3.088,3.088,0,0,0-2.335-3.024,3.614,3.614,0,0,0-1.01-.107h-.2v6.183Z" transform="translate(-408.698 -667.387)" fill="#f3bbc3"/>
    <path id="Tracé_111" data-name="Tracé 111" d="M441.58,523.14l1.509,3.2,1.4-3.2h1.53l-2.271,4.87v3.979h-1.4v-3.994l-2.308-4.845Z" transform="translate(-432.666 -667.33)" fill="#f3bbc3"/>
    <path id="Tracé_112" data-name="Tracé 112" d="M469.429,526.978a4.766,4.766,0,0,1-1.5,3.41,4.636,4.636,0,0,1-7.8-3.437,4.87,4.87,0,0,1,1.313-3.238,4.517,4.517,0,0,1,3.29-1.393,4.689,4.689,0,0,1,4.7,4.658Zm-7.75,0a3.1,3.1,0,1,0,6.2.024,3.1,3.1,0,1,0-6.2-.024Z" transform="translate(-446.607 -666.761)" fill="#f3bbc3"/>
    <path id="Tracé_113" data-name="Tracé 113" d="M495.752,523.14v5.9a2.351,2.351,0,0,0,.159,1.117,1.344,1.344,0,0,0,2.387-.107,2.95,2.95,0,0,0,.147-1.341V523.14h1.42v5.745a3.96,3.96,0,0,1-.266,1.766,2.672,2.672,0,0,1-2.495,1.53,2.755,2.755,0,0,1-2.534-1.607,3.72,3.72,0,0,1-.251-1.723V523.14Z" transform="translate(-470.332 -667.33)" fill="#f3bbc3"/>
    <path id="Tracé_114" data-name="Tracé 114" d="M519.316,523.125a3.776,3.776,0,0,1,1.9.386,2.464,2.464,0,0,1,1.273,2.228,2.807,2.807,0,0,1-2.042,2.693l2.081,2.84-1.154.784-2.62-3.569v3.489H517.32v-8.852Zm0,4.062a1.915,1.915,0,0,0,.823-.095,1.387,1.387,0,0,0,.811-1.365c0-.808-.533-1.289-1.436-1.289h-.741v2.755Z" transform="translate(-486.292 -667.315)" fill="#f3bbc3"/>
    <path id="Tracé_115" data-name="Tracé 115" d="M552.9,524.062a6.393,6.393,0,0,0-2.017-.441,1.185,1.185,0,0,0-1.249,1.142,1.084,1.084,0,0,0,.438.863,5.487,5.487,0,0,0,1.3.637,4.86,4.86,0,0,1,1.711.995,2.5,2.5,0,0,1,.735,1.754,2.8,2.8,0,0,1-2.972,2.709,6.865,6.865,0,0,1-2.84-.652l.386-1.224a6.8,6.8,0,0,0,2.449.572,1.4,1.4,0,0,0,1.53-1.368,1.1,1.1,0,0,0-.582-.995,6.2,6.2,0,0,0-1.142-.545,8.023,8.023,0,0,1-1.726-.983,2.237,2.237,0,0,1-.768-1.723,2.53,2.53,0,0,1,2.825-2.4,6.4,6.4,0,0,1,2.449.533Z" transform="translate(-507.588 -666.817)" fill="#f3bbc3"/>
    <path id="Tracé_116" data-name="Tracé 116" d="M572.393,523.136a4.519,4.519,0,0,1,1.114.107,2.4,2.4,0,0,1,1.794,2.387,2.559,2.559,0,0,1-1.53,2.391,4.716,4.716,0,0,1-1.631.223H571.9v3.743H570.48v-8.852Zm-.251,3.728c1.022,0,1.619-.45,1.619-1.273,0-.768-.478-1.154-1.42-1.154h-.453v2.427Z" transform="translate(-523.181 -667.326)" fill="#f3bbc3"/>
    <path id="Tracé_117" data-name="Tracé 117" d="M589.314,522.23l3.281,9.13h-1.552l-.7-1.965H588l-.637,1.965H585.8l.664-1.965h-.45l.438-1.285h.45l2-5.88Zm-.9,5.88h1.472l-.768-2.143Z" transform="translate(-533.812 -666.699)" fill="#f3bbc3"/>
    <path id="Tracé_118" data-name="Tracé 118" d="M613.313,523.125a3.776,3.776,0,0,1,1.9.386,2.47,2.47,0,0,1,1.273,2.228,2.806,2.806,0,0,1-2.045,2.693l2.084,2.84-1.154.784-2.617-3.569v3.489H611.32v-8.852Zm0,4.062a1.915,1.915,0,0,0,.823-.095,1.39,1.39,0,0,0,.808-1.365c0-.808-.529-1.289-1.432-1.289h-.744v2.755Z" transform="translate(-551.52 -667.315)" fill="#f3bbc3"/>
    <path id="Tracé_119" data-name="Tracé 119" d="M634.011,523.14v3.783l2.084-3.783h1.512l-2.363,4.242,2.449,4.153-1.224.612-2.449-4.193v4.034h-1.38V523.14Z" transform="translate(-566.315 -667.33)" fill="#f3bbc3"/>
  </g>
</svg>
