<svg xmlns="http://www.w3.org/2000/svg" width="16.732" height="18.524" viewBox="0 0 16.732 18.524">
  <g id="notification_4_" data-name="notification (4)" transform="translate(-17.95 0)">
    <g id="Groupe_61" data-name="Groupe 61" transform="translate(17.95 0)">
      <path id="Tracé_17" data-name="Tracé 17" d="M34.672,13.839a2.146,2.146,0,0,0-2.145-1.888.235.235,0,0,1-.236-.236V8.2A6.159,6.159,0,0,0,28.314,2.45a2.091,2.091,0,0,0,.042-.409,2.041,2.041,0,1,0-4.081,0,2.185,2.185,0,0,0,.039.4A5.971,5.971,0,0,0,20.34,8.067v3.648a.237.237,0,0,1-.236.236,2.143,2.143,0,0,0-2.145,1.888,2.092,2.092,0,0,0,2.082,2.295h3.6a2.687,2.687,0,0,0,5.342,0h3.6a2.092,2.092,0,0,0,2.082-2.295ZM26.316,1.2a.847.847,0,0,1,.845.845.73.73,0,0,1-.012.114,5.294,5.294,0,0,0-.615-.057,6.156,6.156,0,0,0-1.052.06.731.731,0,0,1-.012-.114.847.847,0,0,1,.846-.848Zm0,16.133a1.5,1.5,0,0,1-1.464-1.2H27.78A1.5,1.5,0,0,1,26.316,17.328Zm6.937-2.683a.889.889,0,0,1-.663.293H20.042a.889.889,0,0,1-.663-.293.878.878,0,0,1-.227-.693.939.939,0,0,1,.956-.807,1.433,1.433,0,0,0,1.431-1.431V8.067a4.782,4.782,0,0,1,4.777-4.78c.06,0,.116,0,.176,0A4.888,4.888,0,0,1,31.1,8.2v3.519a1.433,1.433,0,0,0,1.431,1.431.939.939,0,0,1,.956.807A.894.894,0,0,1,33.253,14.645Z" transform="translate(-17.95 0)" fill="#3c4d5d"/>
      <path id="Tracé_18" data-name="Tracé 18" d="M19.115,49.529a.6.6,0,0,0,.583-.469A6.984,6.984,0,0,1,21.6,45.6a.6.6,0,0,0-.845-.845,8.175,8.175,0,0,0-2.223,4.048.594.594,0,0,0,.454.711A.692.692,0,0,0,19.115,49.529Z" transform="translate(-18.487 -42.358)" fill="#3c4d5d"/>
      <path id="Tracé_19" data-name="Tracé 19" d="M290.061,49.471a.63.63,0,0,0,.128-.015.6.6,0,0,0,.454-.711A8.188,8.188,0,0,0,288.42,44.7a.6.6,0,0,0-.845.845,7.007,7.007,0,0,1,1.9,3.457A.6.6,0,0,0,290.061,49.471Z" transform="translate(-273.956 -42.3)" fill="#3c4d5d"/>
    </g>
  </g>
</svg>
