<svg id="presentation_2_" data-name="presentation (2)" xmlns="http://www.w3.org/2000/svg" width="16.557" height="14.48" viewBox="0 0 16.557 14.48">
  <path id="Tracé_38" data-name="Tracé 38" d="M15.033,0H7.759A1.526,1.526,0,0,0,6.235,1.524V6.19L4.884,5.519c-.046-.023-.092-.044-.139-.065A2.3,2.3,0,1,0,1.568,5.6,3.07,3.07,0,0,0,0,8.279V9.837a1.527,1.527,0,0,0,1.039,1.445v2.712a.485.485,0,0,0,.485.485H4.642a.485.485,0,0,0,.485-.485V8.544L6.68,9.32a1.331,1.331,0,0,0,1.765-.556h1.739L8.342,13.828a.485.485,0,0,0,.912.332l1.962-5.4h.34l1.982,5.4a.485.485,0,0,0,.911-.335L12.59,8.764h2.443A1.524,1.524,0,0,0,16.557,7.24V1.524A1.524,1.524,0,0,0,15.033,0ZM1.75,3.862A1.333,1.333,0,1,1,3.083,5.2,1.335,1.335,0,0,1,1.75,3.862ZM7.616,8.245l0,.011a.359.359,0,0,1-.5.2L4.858,7.325a.485.485,0,0,0-.7.434v5.75H2.009V10.877a.485.485,0,0,0-.485-.485A.555.555,0,0,1,.97,9.837V8.279A2.113,2.113,0,0,1,3.083,6.166h.429a2.114,2.114,0,0,1,.94.221l3.019,1.5A.291.291,0,0,1,7.616,8.245ZM15.587,7.24a.55.55,0,0,1-.162.392.558.558,0,0,1-.392.162H8.55l0-.008,1.2-2.408a.485.485,0,0,0-.868-.434L7.857,7l-.652-.325V1.524A.555.555,0,0,1,7.759.97h7.274a.557.557,0,0,1,.392.162.55.55,0,0,1,.162.392Zm0,0" transform="translate(0)" fill="#3c4d5d"/>
  <path id="Tracé_39" data-name="Tracé 39" d="M262.747,64.266h-5.2a.485.485,0,0,0,0,.97h5.2a.485.485,0,0,0,0-.97Zm0,0" transform="translate(-248.753 -62.187)" fill="#3c4d5d"/>
  <path id="Tracé_40" data-name="Tracé 40" d="M340.482,120.5h-2.6a.485.485,0,1,0,0,.97h2.6a.485.485,0,0,0,0-.97Zm0,0" transform="translate(-326.487 -116.603)" fill="#3c4d5d"/>
  <path id="Tracé_41" data-name="Tracé 41" d="M340.482,176.734h-2.6a.485.485,0,1,0,0,.97h2.6a.485.485,0,1,0,0-.97Zm0,0" transform="translate(-326.487 -171.019)" fill="#3c4d5d"/>
</svg>
