<svg xmlns="http://www.w3.org/2000/svg" width="20.013" height="20" viewBox="0 0 20.013 20">
  <g id="profile_1_" data-name="profile (1)" transform="translate(-2 -2)">
    <path id="Tracé_280" data-name="Tracé 280" d="M9,2A4.717,4.717,0,0,0,4.3,6.8a4.673,4.673,0,0,0,4.6,4.7h.2a4.739,4.739,0,0,0,4.6-4.7A4.656,4.656,0,0,0,9,2Z" fill="#1376a3"/>
    <path id="Tracé_281" data-name="Tracé 281" d="M14.1,14.1A9.661,9.661,0,0,0,4,14.1a3.975,3.975,0,0,0-2,3.2,3.843,3.843,0,0,0,2,3.2A8.447,8.447,0,0,0,9,22a9.753,9.753,0,0,0,5.1-1.4,3.975,3.975,0,0,0,2-3.2,4.531,4.531,0,0,0-2-3.3Z" fill="#1376a3"/>
    <path id="Tracé_282" data-name="Tracé 282" d="M20,7.3a3.629,3.629,0,0,1-3.1,3.9h-.2a3.433,3.433,0,0,1-2.5-.8,4.7,4.7,0,0,0,1.5-3.8,4.53,4.53,0,0,0-.8-2.2,2.768,2.768,0,0,1,1.3-.3A3.552,3.552,0,0,1,20,7.3Z" fill="#1376a3"/>
    <path id="Tracé_283" data-name="Tracé 283" d="M22,16.6A3.161,3.161,0,0,1,20.3,19a8.174,8.174,0,0,1-3.5.8A3.707,3.707,0,0,0,18,17.5a4.06,4.06,0,0,0-1.7-3.4A12.564,12.564,0,0,0,14,12.8,7.892,7.892,0,0,1,20.7,14,2.926,2.926,0,0,1,22,16.6Z" fill="#1376a3"/>
  </g>
</svg>
