<svg xmlns="http://www.w3.org/2000/svg" width="17.381" height="16.301" viewBox="0 0 17.381 16.301">
    <path id="Tracé_76" data-name="Tracé 76" d="M363.05,242.025a2.025,2.025,0,1,0-2.025,2.025A2.027,2.027,0,0,0,363.05,242.025Zm-2.025,1.35a1.35,1.35,0,1,1,1.35-1.35A1.352,1.352,0,0,1,361.025,243.375Zm0,0" transform="translate(-346.883 -231.9)" fill="#3c4d5d" stroke="#3c4d5d" stroke-width="0.1"/>
    <path id="Tracé_77" data-name="Tracé 77" d="M14.142,340.675a3.3,3.3,0,0,0-2.276.926,4.049,4.049,0,0,0-6.45,0,3.3,3.3,0,0,0-2.276-.926A3.131,3.131,0,0,0,0,343.713v.675a.337.337,0,0,0,.338.337H16.943a.337.337,0,0,0,.338-.337v-.675A3.131,3.131,0,0,0,14.142,340.675ZM.675,343.713a2.447,2.447,0,0,1,2.464-2.363,2.576,2.576,0,0,1,1.9.839,4.05,4.05,0,0,0-.453,1.862H.675Zm7.965-3.038a3.374,3.374,0,0,1,3.375,3.375H5.265A3.378,3.378,0,0,1,8.64,340.675Zm7.965,3.375H12.69a4.05,4.05,0,0,0-.453-1.862,2.576,2.576,0,0,1,1.9-.839,2.447,2.447,0,0,1,2.464,2.363Zm0,0" transform="translate(0 -328.525)" fill="#3c4d5d" stroke="#3c4d5d" stroke-width="0.1"/>
    <path id="Tracé_78" data-name="Tracé 78" d="M37.05,242.025a2.025,2.025,0,1,0-2.025,2.025A2.027,2.027,0,0,0,37.05,242.025Zm-2.025,1.35a1.35,1.35,0,1,1,1.35-1.35A1.352,1.352,0,0,1,35.025,243.375Zm0,0" transform="translate(-31.886 -231.9)" fill="#3c4d5d" stroke="#3c4d5d" stroke-width="0.1"/>
    <path id="Tracé_79" data-name="Tracé 79" d="M181.4,182.7a2.7,2.7,0,1,0-2.7,2.7A2.7,2.7,0,0,0,181.4,182.7Zm-2.7,2.025a2.025,2.025,0,1,1,2.025-2.025A2.027,2.027,0,0,1,178.7,184.725Zm0,0" transform="translate(-170.06 -173.925)" fill="#3c4d5d" stroke="#3c4d5d" stroke-width="0.1"/>
    <path id="Tracé_80" data-name="Tracé 80" d="M181.034,1.963a.337.337,0,0,0-.273-.23l-1.456-.211L178.654.189a.337.337,0,0,0-.606,0L177.4,1.522l-1.456.211a.338.338,0,0,0-.187.576l1.054,1.027-.249,1.451a.338.338,0,0,0,.49.356l1.3-.685,1.3.685a.337.337,0,0,0,.49-.356l-.249-1.451,1.054-1.027A.337.337,0,0,0,181.034,1.963ZM179.3,2.977a.337.337,0,0,0-.1.3l.163.952-.855-.449a.338.338,0,0,0-.314,0l-.854.449.163-.952a.338.338,0,0,0-.1-.3l-.691-.674.955-.139a.337.337,0,0,0,.255-.186l.427-.873.427.873a.337.337,0,0,0,.255.186l.955.139Zm0,0" transform="translate(-169.723)" fill="#3c4d5d" stroke="#3c4d5d" stroke-width="0.1"/>
    <path id="Tracé_81" data-name="Tracé 81" d="M369.471,91.455a.337.337,0,0,0-.272-.23l-.986-.143-.441-.894a.337.337,0,0,0-.3-.188h0a.337.337,0,0,0-.3.188l-.441.894-.986.143a.338.338,0,0,0-.187.576l.714.7-.168.982a.338.338,0,0,0,.49.356l.883-.464.882.464a.338.338,0,0,0,.49-.356l-.168-.982.714-.7A.337.337,0,0,0,369.471,91.455Zm-1.4.683a.337.337,0,0,0-.1.3l.083.483-.434-.228a.337.337,0,0,0-.314,0l-.434.228.083-.483a.337.337,0,0,0-.1-.3l-.351-.343.485-.07a.338.338,0,0,0,.254-.185l.217-.44.217.44a.337.337,0,0,0,.254.185l.485.07Zm0,0" transform="translate(-353.115 -86.962)" fill="#3c4d5d" stroke="#3c4d5d" stroke-width="0.1"/>
    <path id="Tracé_82" data-name="Tracé 82" d="M29.471,91.455a.337.337,0,0,0-.273-.23l-.986-.143-.441-.894a.337.337,0,0,0-.605,0l-.441.894-.986.143a.338.338,0,0,0-.187.576l.714.7-.168.982a.338.338,0,0,0,.49.356l.882-.464.882.464a.338.338,0,0,0,.49-.356l-.168-.982.714-.7A.337.337,0,0,0,29.471,91.455Zm-1.4.683a.338.338,0,0,0-.1.3l.083.483-.434-.228a.337.337,0,0,0-.314,0l-.434.228.083-.483a.337.337,0,0,0-.1-.3l-.351-.343.485-.07a.338.338,0,0,0,.254-.185l.217-.44.217.44a.338.338,0,0,0,.254.185l.485.07Zm0,0" transform="translate(-24.59 -86.962)" fill="#3c4d5d" stroke="#3c4d5d" stroke-width="0.1"/>
</svg>
