<svg xmlns="http://www.w3.org/2000/svg" width="14.406" height="14.406" viewBox="0 0 14.406 14.406">
  <g id="settings" transform="translate(0.125 0.125)">
    <path id="Tracé_69" data-name="Tracé 69" d="M7.522,14.156H6.634a1.3,1.3,0,0,1-1.3-1.3v-.3a5.715,5.715,0,0,1-.887-.368L4.23,12.4a1.3,1.3,0,0,1-1.843,0l-.628-.628a1.3,1.3,0,0,1,0-1.843l.213-.213A5.715,5.715,0,0,1,1.6,8.826H1.3A1.3,1.3,0,0,1,0,7.522V6.634a1.3,1.3,0,0,1,1.3-1.3h.3a5.717,5.717,0,0,1,.368-.887L1.759,4.23a1.3,1.3,0,0,1,0-1.843l.628-.628a1.3,1.3,0,0,1,1.843,0l.213.213A5.72,5.72,0,0,1,5.331,1.6V1.3A1.3,1.3,0,0,1,6.634,0h.888a1.3,1.3,0,0,1,1.3,1.3v.3a5.715,5.715,0,0,1,.887.368l.213-.213a1.3,1.3,0,0,1,1.843,0l.628.628a1.3,1.3,0,0,1,0,1.843l-.213.213a5.716,5.716,0,0,1,.368.887h.3a1.3,1.3,0,0,1,1.3,1.3v.888a1.3,1.3,0,0,1-1.3,1.3h-.3a5.717,5.717,0,0,1-.368.887l.213.213a1.3,1.3,0,0,1,0,1.843l-.628.628a1.3,1.3,0,0,1-1.843,0l-.213-.213a5.721,5.721,0,0,1-.887.368v.3A1.3,1.3,0,0,1,7.522,14.156Zm-2.94-2.843a4.889,4.889,0,0,0,1.267.526.415.415,0,0,1,.311.4v.612a.474.474,0,0,0,.474.474h.888A.474.474,0,0,0,8,12.853v-.612a.415.415,0,0,1,.311-.4,4.889,4.889,0,0,0,1.267-.526.415.415,0,0,1,.5.064l.434.434a.474.474,0,0,0,.67,0l.628-.628a.474.474,0,0,0,0-.67l-.434-.434a.415.415,0,0,1-.064-.5,4.888,4.888,0,0,0,.526-1.267.415.415,0,0,1,.4-.311h.612a.474.474,0,0,0,.474-.474V6.634a.474.474,0,0,0-.474-.474h-.612a.415.415,0,0,1-.4-.311,4.889,4.889,0,0,0-.526-1.267.415.415,0,0,1,.064-.5l.434-.434a.474.474,0,0,0,0-.67l-.628-.628a.474.474,0,0,0-.67,0l-.434.434a.415.415,0,0,1-.5.064,4.889,4.889,0,0,0-1.267-.526A.415.415,0,0,1,8,1.916V1.3A.474.474,0,0,0,7.522.829H6.634A.474.474,0,0,0,6.16,1.3v.612a.415.415,0,0,1-.311.4,4.889,4.889,0,0,0-1.267.526.415.415,0,0,1-.5-.064l-.434-.434a.474.474,0,0,0-.67,0l-.628.628a.474.474,0,0,0,0,.67l.434.434a.415.415,0,0,1,.064.5,4.888,4.888,0,0,0-.526,1.267.415.415,0,0,1-.4.311H1.3a.474.474,0,0,0-.474.474v.888A.474.474,0,0,0,1.3,8h.612a.415.415,0,0,1,.4.311,4.889,4.889,0,0,0,.526,1.267.415.415,0,0,1-.064.5l-.434.434a.474.474,0,0,0,0,.67l.628.628a.474.474,0,0,0,.67,0l.434-.434a.417.417,0,0,1,.5-.064Z" fill="#3c4d5d" stroke="#3c4d5d" stroke-width="0.25"/>
    <path id="Tracé_70" data-name="Tracé 70" d="M147.68,150.76a3.08,3.08,0,1,1,3.08-3.08A3.084,3.084,0,0,1,147.68,150.76Zm0-5.331a2.251,2.251,0,1,0,2.251,2.251A2.253,2.253,0,0,0,147.68,145.429Z" transform="translate(-140.602 -140.602)" fill="#3c4d5d" stroke="#3c4d5d" stroke-width="0.25"/>
  </g>
</svg>
