<svg xmlns="http://www.w3.org/2000/svg" width="15.25" height="13.978" viewBox="0 0 15.25 13.978">
  <path id="shopping-cart" d="M14.624,23.883H2.7l-.177-1.975a.626.626,0,0,0-.624-.57H.626a.626.626,0,0,0,0,1.253h.7l.72,8.025a2.409,2.409,0,0,0,.9,1.633,1.9,1.9,0,1,0,3.281.522H9.657a1.9,1.9,0,1,0,1.785-1.253H4.448a1.163,1.163,0,0,1-1.069-.705l10.009-.588a.626.626,0,0,0,.571-.473l1.273-5.09A.627.627,0,0,0,14.624,23.883ZM4.444,34.063a.646.646,0,1,1,.646-.646A.647.647,0,0,1,4.444,34.063Zm7,0a.646.646,0,1,1,.646-.646A.647.647,0,0,1,11.443,34.063ZM12.855,29l-9.645.567-.4-4.432H13.822Z" transform="translate(0 -21.338)" fill="#3c4d5d"/>
</svg>
