<svg xmlns="http://www.w3.org/2000/svg" width="18.699" height="17.141" viewBox="0 0 18.699 17.141">
  <g id="transfer_1_" data-name="transfer (1)" transform="translate(0 -1)">
    <path id="Tracé_258" data-name="Tracé 258" d="M18.777,11.908a.585.585,0,0,1-.584-.584,4.1,4.1,0,0,0-4.09-4.09H8.454V9.765a.585.585,0,0,1-.988.422L3.181,6.1a.584.584,0,0,1,0-.845l4.285-4.09a.585.585,0,0,1,.988.422V4.116h4.869a6.045,6.045,0,0,1,6.038,6.038v1.169A.585.585,0,0,1,18.777,11.908Z" transform="translate(-0.663 0)" fill="#1376a3"/>
    <path id="Tracé_259" data-name="Tracé 259" d="M10.908,19.323V16.791H6.038A6.045,6.045,0,0,1,0,10.753V9.584a.584.584,0,1,1,1.169,0,4.1,4.1,0,0,0,4.09,4.09h5.649V11.143a.585.585,0,0,1,.988-.422l4.285,4.09a.584.584,0,0,1,0,.845L11.9,19.746A.585.585,0,0,1,10.908,19.323Z" transform="translate(0 -1.767)" fill="#1376a3"/>
  </g>
</svg>
