<svg xmlns="http://www.w3.org/2000/svg" width="16.57" height="16.57" viewBox="0 0 16.57 16.57">
  <g id="trash-bin" transform="translate(-2 -2)">
    <path id="Tracé_130" data-name="Tracé 130" d="M17.742,5H2.829a.829.829,0,1,0,0,1.657H4.486V16.6a2.486,2.486,0,0,0,2.486,2.486H13.6A2.486,2.486,0,0,0,16.085,16.6V6.657h1.657a.829.829,0,1,0,0-1.657ZM9.457,14.114a.829.829,0,1,1-1.657,0V9.971a.829.829,0,1,1,1.657,0Zm3.314,0a.829.829,0,1,1-1.657,0V9.971a.829.829,0,1,1,1.657,0Z" transform="translate(0 -0.514)" fill="red"/>
    <path id="Tracé_131" data-name="Tracé 131" d="M9.829,3.657h3.314a.829.829,0,0,0,0-1.657H9.829a.829.829,0,1,0,0,1.657Z" transform="translate(-1.2)" fill="red"/>
  </g>
</svg>
