<svg id="user_31_" data-name="user (31)" xmlns="http://www.w3.org/2000/svg" width="94.495" height="113.263" viewBox="0 0 94.495 113.263">
  <path id="Tracé_250" data-name="Tracé 250" d="M114.312,54.559A26.4,26.4,0,0,0,133.6,46.566a26.4,26.4,0,0,0,7.991-19.288A26.4,26.4,0,0,0,133.6,7.99a27.274,27.274,0,0,0-38.576,0,26.4,26.4,0,0,0-7.992,19.287,26.4,26.4,0,0,0,7.993,19.289A26.4,26.4,0,0,0,114.312,54.559Zm0,0" transform="translate(-67.779 0)" fill="#fff"/>
  <path id="Tracé_251" data-name="Tracé 251" d="M94.266,279.7a67.373,67.373,0,0,0-.918-7.156,56.375,56.375,0,0,0-1.76-7.2,35.542,35.542,0,0,0-2.958-6.711,25.336,25.336,0,0,0-4.461-5.813,19.667,19.667,0,0,0-6.407-4.026,22.143,22.143,0,0,0-8.18-1.48c-1.156,0-2.274.474-4.434,1.88-1.329.867-2.884,1.869-4.619,2.978a26.461,26.461,0,0,1-5.976,2.633,23.2,23.2,0,0,1-14.619,0,26.4,26.4,0,0,1-5.972-2.632c-1.719-1.1-3.274-2.1-4.623-2.979-2.157-1.406-3.276-1.881-4.432-1.881a22.117,22.117,0,0,0-8.179,1.482,19.647,19.647,0,0,0-6.408,4.026,25.334,25.334,0,0,0-4.459,5.812A35.6,35.6,0,0,0,2.9,265.349a56.474,56.474,0,0,0-1.759,7.194A67.144,67.144,0,0,0,.226,279.7C.076,281.869,0,284.118,0,286.39c0,5.912,1.879,10.7,5.586,14.228,3.66,3.483,8.5,5.251,14.394,5.251H74.515c5.89,0,10.731-1.766,14.393-5.251,3.707-3.527,5.587-8.315,5.587-14.229C94.494,284.108,94.417,281.856,94.266,279.7Zm0,0" transform="translate(0 -192.606)" fill="#fff"/>
</svg>
