<svg xmlns="http://www.w3.org/2000/svg" width="19.808" height="19.807" viewBox="0 0 19.808 19.807">
  <path id="video-call" d="M16.888,2.923a9.9,9.9,0,0,0-15.434,12.2l.22.356-1.692,4.35,4.35-1.692.356.22a9.9,9.9,0,0,0,12.2-15.434ZM15.373,6.94a.243.243,0,0,1,.108.2v5.57a.242.242,0,0,1-.334.224L12.361,11.8l-.013.875a.882.882,0,0,1-.846.9H5.136a.885.885,0,0,1-.846-.912V7.2a.884.884,0,0,1,.846-.912H11.5a.883.883,0,0,1,.846.9l.013.875,2.785-1.139a.242.242,0,0,1,.227.023Z" transform="translate(0.019 -0.023)" fill="#1376a3" fill-rule="evenodd"/>
</svg>
