<svg xmlns="http://www.w3.org/2000/svg" width="14.018" height="14.079" viewBox="0 0 14.018 14.079">
  <g id="world-wide-web" transform="translate(-0.056)">
    <path id="Tracé_276" data-name="Tracé 276" d="M4.4,11.071l-.9,2.046a.15.15,0,0,1-.139.083H2.9a.149.149,0,0,1-.139-.083l-.428-.976c-.042-.1-.08-.188-.115-.28-.04.1-.08.194-.121.284l-.451.975a.15.15,0,0,1-.138.081H1.048a.149.149,0,0,1-.14-.086L.065,11.068a.118.118,0,0,1,.018-.12A.155.155,0,0,1,.2,10.893H.724a.149.149,0,0,1,.142.092l.37,1.04c.031.088.06.171.086.25q.049-.119.105-.251l.456-1.046a.15.15,0,0,1,.139-.084h.429a.151.151,0,0,1,.14.085L3.023,12c.039.092.074.178.106.259.027-.077.057-.16.093-.252l.4-1.028a.149.149,0,0,1,.141-.089h.5a.157.157,0,0,1,.123.056A.119.119,0,0,1,4.4,11.071Zm4.831,0-.9,2.046a.149.149,0,0,1-.139.083H7.732a.15.15,0,0,1-.139-.083l-.427-.976c-.042-.1-.08-.188-.116-.28-.04.1-.08.194-.121.284l-.451.975a.15.15,0,0,1-.138.081H5.878a.15.15,0,0,1-.14-.086l-.843-2.046a.118.118,0,0,1,.018-.12.158.158,0,0,1,.122-.056h.519a.149.149,0,0,1,.142.092l.37,1.04.087.25q.048-.119.1-.251l.456-1.046a.149.149,0,0,1,.139-.084h.429a.15.15,0,0,1,.14.085L7.854,12c.038.092.073.178.1.259.028-.077.057-.16.093-.252l.4-1.028a.15.15,0,0,1,.141-.089h.5a.155.155,0,0,1,.123.056A.118.118,0,0,1,9.234,11.071Zm4.831,0-.9,2.046a.15.15,0,0,1-.139.083h-.462a.149.149,0,0,1-.139-.083L12,12.14c-.042-.1-.08-.188-.116-.28-.04.1-.081.194-.121.284l-.451.975a.15.15,0,0,1-.138.081h-.461a.15.15,0,0,1-.141-.086l-.843-2.046a.119.119,0,0,1,.018-.12.156.156,0,0,1,.122-.056h.52a.147.147,0,0,1,.142.092l.37,1.04c.031.088.06.171.087.25q.048-.119.1-.251l.456-1.046a.15.15,0,0,1,.139-.084h.428a.15.15,0,0,1,.14.085L12.684,12c.039.092.074.178.106.259.027-.077.057-.16.093-.252l.4-1.028a.148.148,0,0,1,.141-.089h.5a.155.155,0,0,1,.123.056A.121.121,0,0,1,14.065,11.071Z" transform="translate(0 -4.994)" fill="#fff"/>
    <g id="Groupe_494" data-name="Groupe 494" transform="translate(0.344)">
      <path id="Tracé_277" data-name="Tracé 277" d="M1.737,4.874a5.981,5.981,0,0,1,.572-1.1.521.521,0,0,0,.1.02H3.428a10.112,10.112,0,0,0-.265,1.083H4.275a8.7,8.7,0,0,1,.3-1.083H9.987a8.7,8.7,0,0,1,.3,1.083H11.4a10.113,10.113,0,0,0-.265-1.083h1.018a.535.535,0,0,0,.1-.02,6.046,6.046,0,0,1,.572,1.1h1.149a7.035,7.035,0,0,0-13.39,0Zm9.621-2.166h-.643a6.79,6.79,0,0,0-.461-.823A5.968,5.968,0,0,1,11.359,2.708ZM7.283,1.083a2.761,2.761,0,0,1,2.2,1.625h-4.4A2.761,2.761,0,0,1,7.283,1.083Zm-2.972.8a6.862,6.862,0,0,0-.46.823H3.208A6,6,0,0,1,4.311,1.885Z" transform="translate(-0.588)" fill="#fff"/>
      <path id="Tracé_278" data-name="Tracé 278" d="M12.829,17a6.014,6.014,0,0,1-.572,1.1.521.521,0,0,0-.1-.02H11.138A10.112,10.112,0,0,0,11.4,17H10.291a8.582,8.582,0,0,1-.3,1.083H4.579A8.674,8.674,0,0,1,4.275,17H3.163a10.112,10.112,0,0,0,.265,1.083H2.41a.521.521,0,0,0-.1.02A6.014,6.014,0,0,1,1.737,17H.588a7.035,7.035,0,0,0,13.39,0ZM3.208,19.166h.643a6.82,6.82,0,0,0,.46.823A5.982,5.982,0,0,1,3.208,19.166Zm4.075,1.625a2.761,2.761,0,0,1-2.2-1.625h4.4A2.759,2.759,0,0,1,7.283,20.791Zm2.972-.8a6.749,6.749,0,0,0,.461-.823h.643A6,6,0,0,1,10.255,19.989Z" transform="translate(-0.588 -7.794)" fill="#fff"/>
    </g>
  </g>
</svg>
