<svg xmlns="http://www.w3.org/2000/svg" width="14.004" height="14" viewBox="0 0 14.004 14">
  <g id="XMLID_105_" transform="translate(0 -0.036)">
    <path id="XMLID_106_" d="M7.537,106.934l-2.143,2.143h0a2.273,2.273,0,0,1-3.214-3.214h0l2.143-2.143a.758.758,0,0,0-1.071-1.071l-2.143,2.143h0a3.788,3.788,0,0,0,5.357,5.356h0l2.143-2.143a.758.758,0,0,0-1.071-1.071Z" transform="translate(0 -97.22)" fill="#ef6032"/>
    <path id="XMLID_107_" d="M111.255,3.822a3.788,3.788,0,0,0-6.466-2.678h0l-2.143,2.143a.758.758,0,1,0,1.071,1.071l2.143-2.143h0a2.273,2.273,0,0,1,3.214,3.214h0l-2.143,2.143A.758.758,0,1,0,108,8.643L110.146,6.5h0A3.763,3.763,0,0,0,111.255,3.822Z" transform="translate(-97.252 0)" fill="#ef6032"/>
    <path id="XMLID_108_" d="M81.435,86.792a.757.757,0,0,0,1.071,0l4.285-4.285a.758.758,0,0,0-1.071-1.071L81.435,85.72A.758.758,0,0,0,81.435,86.792Z" transform="translate(-77.112 -77.078)" fill="#ef6032"/>
  </g>
</svg>
