<svg xmlns="http://www.w3.org/2000/svg" width="14.533" height="10.807" viewBox="0 0 14.533 10.807">
  <g id="XMLID_2_" transform="translate(0 -42.299)">
    <path id="XMLID_4_" d="M2.255,108.3H9.909a.661.661,0,0,0,0-1.321H2.255l.854-.854a.661.661,0,1,0-.934-.934L.194,107.176c-.015.015-.03.031-.044.048l-.009.013c-.01.013-.02.026-.029.039l-.007.012c-.009.014-.018.028-.026.043l0,.009c-.008.016-.016.033-.023.049l0,.006c-.007.018-.014.036-.019.054l0,.007c-.005.018-.01.037-.014.055s0,.011,0,.017-.005.031-.007.047a.651.651,0,0,0,0,.132c0,.016,0,.032.007.048s0,.011,0,.016.009.038.014.056l0,.007c.006.019.012.037.02.055l0,.006c.007.017.015.034.024.05l0,.009c.008.015.017.029.026.044l.007.012c.009.014.019.027.029.039l.009.013c.014.017.028.033.044.048l1.982,1.982a.661.661,0,0,0,.934-.934Z" transform="translate(0 -59.94)" fill="#3c4d5d"/>
    <path id="XMLID_5_" d="M107.445,42.3a5.4,5.4,0,0,0-4.488,2.393.661.661,0,0,0,1.1.737,4.082,4.082,0,1,1,.006,4.556.661.661,0,0,0-1.095.74,5.4,5.4,0,1,0,4.48-8.425Z" transform="translate(-98.316)" fill="#3c4d5d"/>
  </g>
</svg>
