<svg xmlns="http://www.w3.org/2000/svg" width="13.254" height="10.169" viewBox="0 0 13.254 10.169">
  <path id="Tracé_125" data-name="Tracé 125" d="M92.079,203.96a1.179,1.179,0,0,1,0,1.637l-.913.913a1.179,1.179,0,0,1-1.637,0l-4-4.03a1.179,1.179,0,0,1,0-1.637l.913-.913a1.179,1.179,0,0,1,1.637,0Z" transform="translate(-85.2 -196.672)" fill="#1376A3"/>
      <path id="Tracé_126" data-name="Tracé 126" d="M171.657,125.531a1.179,1.179,0,0,1,1.637,0l.913.913a1.179,1.179,0,0,1,0,1.637l-6.926,6.895a1.179,1.179,0,0,1-1.637,0l-.913-.913a1.179,1.179,0,0,1,0-1.637Z" transform="translate(-161.283 -125.2)" fill="#1376A3"/>
</svg>
