<svg xmlns="http://www.w3.org/2000/svg" width="19.162" height="19.163" viewBox="0 0 19.162 19.163">
  <path id="list" d="M18.505,10.838a2.248,2.248,0,0,0-3.175,0l-4.11,4.1a.749.749,0,0,0-.187.312l-.9,2.946a.748.748,0,0,0,.916.939l3.021-.837a.75.75,0,0,0,.329-.192l4.1-4.093A2.249,2.249,0,0,0,18.505,10.838Zm-5.019,6.071-1.52.421.445-1.464L15.184,13.1l1.059,1.059Zm3.961-3.954L17.3,13.1l-1.059-1.059.145-.144a.749.749,0,0,1,1.059,1.058Zm-8.876,5.46a.748.748,0,0,1-.749.749H2.994A3,3,0,0,1,0,16.169V2.994A3,3,0,0,1,2.994,0h9.2a3,3,0,0,1,2.994,2.994V8.758a.749.749,0,1,1-1.5,0V2.994a1.5,1.5,0,0,0-1.5-1.5h-9.2a1.5,1.5,0,0,0-1.5,1.5V16.169a1.5,1.5,0,0,0,1.5,1.5H7.822A.748.748,0,0,1,8.571,18.414ZM12.2,5.577a.748.748,0,0,1-.749.749H9.245a.749.749,0,0,1,0-1.5h2.208A.748.748,0,0,1,12.2,5.577ZM7.688,4.032,5.941,6.147a1.307,1.307,0,0,1-.926.48l-.086,0a1.307,1.307,0,0,1-.9-.36l-.02-.02-.8-.825A.749.749,0,1,1,4.279,4.381l.638.655L6.534,3.079a.749.749,0,0,1,1.154.954Zm3.764,6.9H9.245a.749.749,0,1,1,0-1.5h2.208a.749.749,0,0,1,0,1.5Zm-3.764-2.3L5.941,10.746a1.307,1.307,0,0,1-.926.479l-.086,0a1.308,1.308,0,0,1-.9-.36l-.019-.018-.8-.82a.749.749,0,0,1,1.07-1.047l.639.653L6.534,7.678a.749.749,0,0,1,1.154.954Zm0,4.529L5.941,15.275a1.307,1.307,0,0,1-.926.479l-.086,0a1.308,1.308,0,0,1-.9-.36l-.019-.018-.8-.82a.749.749,0,0,1,1.07-1.047l.639.653,1.617-1.958a.749.749,0,0,1,1.154.954Zm0,0" fill="#2b76a3"/>
</svg>
