<svg xmlns="http://www.w3.org/2000/svg" width="41.473" height="40" viewBox="0 0 41.473 40">
  <g id="Groupe_527" data-name="Groupe 527" transform="translate(-1903.224 -1822.002)">
    <path id="Tracé_100" data-name="Tracé 100" d="M515.915,478.363c-.508-4.836-.975-9.862-1.462-15.765l-1.877-.417-.01.054c-2.141-.415-4.3-.91-6.383-1.388-.614-.141-1.249-.287-1.873-.428l-2.7-.611,5.183-2.233,6.9,2.788-.061.2,2.515.559.054.662c.506,6.177.987,11.384,1.513,16.386Z" transform="translate(1407.715 1373.237)" fill="#f16032"/>
    <path id="Tracé_101" data-name="Tracé 101" d="M510.043,485.63a1.1,1.1,0,0,1-.488-.123c-.078-.038-.169-.09-.289-.163-.192-.117-.46-.292-.8-.52-.629-.428-1.5-1.043-2.451-1.733-1.687-1.223-4.008-2.959-5.464-4.161l-1.338-1.105,1.674-.459c.653-.179,1.318-.366,1.961-.547,5.457-1.533,11.1-3.118,16.951-2.269q.507-.426,1.019-.839l.061-.049.068-.038c1.009-.559,2.041-1.113,3.038-1.648,1.922-1.031,3.907-2.1,5.819-3.253l1.668-5.092,2.464.72c-.274-1.123-.6-2.244-.918-3.34-.213-.734-.432-1.486-.635-2.242-2.066.991-3.98,1.864-6.149,2.853L522,463.612l-4.037-16.864,1.753-.42,3.521,14.71,2.245-1.055c2.5-1.142,4.664-2.127,7.1-3.315l1-.488.267,1.083c.266,1.08.585,2.18.894,3.244.468,1.611.952,3.278,1.279,4.964l.281,1.451-3.668-1.071-1.332,4.065-.283.173c-2.043,1.251-4.152,2.382-6.191,3.476-.97.52-1.971,1.057-2.948,1.6-2.425,1.959-4.779,4.186-7.056,6.339-1.363,1.29-2.772,2.623-4.192,3.894h0A.909.909,0,0,1,510.043,485.63Zm-6.973-7c2.4,1.872,5.634,4.2,6.849,4.994,1.242-1.125,2.479-2.3,3.68-3.432,1.416-1.34,2.862-2.707,4.342-4.028a27.357,27.357,0,0,0-6.384.388,80.4,80.4,0,0,0-8.216,2Z" transform="translate(1408.382 1376.372)" fill="#f16032"/>
    <path id="Tracé_102" data-name="Tracé 102" d="M529.157,468.477a12.836,12.836,0,0,1-.9,3.44,19.6,19.6,0,0,1-1.716,3.022c-.584,1-1.183,2-1.81,2.993s-1.283,1.954-1.99,2.885l-.158-.087c.454-1.075.923-2.164,1.348-3.216l1.32-3.217a18.057,18.057,0,0,1,1.443-3.195,10.3,10.3,0,0,1,2.351-2.712Z" transform="translate(1401.868 1370.222)" fill="#f16032"/>
    <path id="Tracé_103" data-name="Tracé 103" d="M512.961,458.37c.267-1.168.519-2.308.721-3.411l.671-3.231a12.4,12.4,0,0,1,.447-1.443l.476-1.442.966-2.885v.562a.8.8,0,0,0,.3.44.608.608,0,0,0,.122.08h.065l.144.043h0l-.274.043-.627.137-1.3.317-2.6.721-5.221,1.479c-3.491.988-6.967,2-10.522,2.884l.116-1.716c2.7,1.053,5.38,2.12,8.048,3.216l2.005.808,2.077,1.1C510,456.848,511.453,457.613,512.961,458.37Zm0,0-4.053-1.01-2.163-.534L504.58,456c-2.935-1.082-5.863-2.2-8.769-3.332l-2.661-1.038,2.783-.678c3.476-.851,6.96-1.861,10.443-2.841l5.236-1.486,2.632-.721,1.349-.332c.224-.05.454-.1.721-.144.123,0,.245-.05.39-.065h.562l.18.058.086.036a.905.905,0,0,1,.144.094.99.99,0,0,1,.332.476l.079.281-.1.274-1.147,3.187-.57,1.587c-.209.512-.332,1.1-.584,1.572Z" transform="translate(1410.073 1376.642)" fill="#f16032"/>
    <path id="Tracé_105" data-name="Tracé 105" d="M349.205,16.287h-1.8V6.35l-6.53,2.2L340.3,6.843l8.909-3Z" transform="translate(1587.048 1820.918)" fill="#f16032"/>
    <path id="Tracé_106" data-name="Tracé 106" d="M352.688,30.361,346.14,24.39l7.623,4.522Z" transform="translate(1585.419 1815.188)" fill="#f16032"/>
  </g>
</svg>
