<svg xmlns="http://www.w3.org/2000/svg" width="24.104" height="24.983" viewBox="0 0 24.104 24.983">
  <g id="pdf-file_1_" data-name="pdf-file (1)" transform="translate(-9)">
    <path id="Tracé_208" data-name="Tracé 208" d="M30.909,145H11.2A2.2,2.2,0,0,0,9,147.2v8.783a2.2,2.2,0,0,0,2.2,2.2H30.909a2.2,2.2,0,0,0,2.2-2.2V147.2A2.2,2.2,0,0,0,30.909,145Zm-16.115,7.726-.806,0v1.688a.732.732,0,1,1-1.464,0l-.011-5.56a.732.732,0,0,1,.732-.734h1.549a2.3,2.3,0,1,1,0,4.6Zm6.283,2.246c-.436.008-1.526.012-1.573.012h0a.732.732,0,0,1-.732-.729c0-.02-.011-5.4-.011-5.4a.732.732,0,0,1,.732-.733H21.02c1.742,0,2.912,1.379,2.912,3.431C23.931,153.506,22.731,154.944,21.077,154.972Zm7.5-4.2a.732.732,0,1,1,0,1.464H27.249v2.081a.732.732,0,1,1-1.464,0V148.8a.732.732,0,0,1,.732-.732h2.238a.732.732,0,1,1,0,1.464H27.249v1.245Z" transform="translate(0 -137.925)" fill="#3c4d5d"/>
    <path id="Tracé_209" data-name="Tracé 209" d="M239.822,239h-.8c0,.661.005,3.294.007,3.93.3,0,.631,0,.82-.008.978-.017,1.416-.994,1.416-1.955C241.27,240.506,241.166,239,239.822,239Z" transform="translate(-218.803 -227.338)" fill="#3c4d5d"/>
    <path id="Tracé_210" data-name="Tracé 210" d="M111.86,239h-.815c0,.326,0,.672,0,.838,0,.193,0,.529,0,.841l.81,0a.838.838,0,1,0,0-1.676Z" transform="translate(-97.066 -227.338)" fill="#3c4d5d"/>
    <path id="Tracé_211" data-name="Tracé 211" d="M83.418,5.611a3.653,3.653,0,0,0-.782-1.263L79.6,1.142A3.675,3.675,0,0,0,76.94,0H67.2A2.2,2.2,0,0,0,65,2.2V5.611Z" transform="translate(-53.267)" fill="#3c4d5d"/>
    <path id="Tracé_212" data-name="Tracé 212" d="M65,445v1.073a2.2,2.2,0,0,0,2.2,2.2H81.444a2.2,2.2,0,0,0,2.2-2.2V445Z" transform="translate(-53.268 -423.286)" fill="#3c4d5d"/>
  </g>
</svg>
