<svg id="play-button_11_" data-name="play-button (11)" xmlns="http://www.w3.org/2000/svg" width="16.664" height="16.664" viewBox="0 0 16.664 16.664">
  <g id="Groupe_81" data-name="Groupe 81">
    <g id="Groupe_80" data-name="Groupe 80">
      <path id="Tracé_54" data-name="Tracé 54" d="M8.332,0a8.332,8.332,0,1,0,8.332,8.332A8.332,8.332,0,0,0,8.332,0Zm0,15.474a7.142,7.142,0,1,1,7.142-7.142A7.142,7.142,0,0,1,8.332,15.474Z" fill="#fff"/>
    </g>
  </g>
  <g id="Groupe_83" data-name="Groupe 83" transform="translate(5.951 5.356)">
    <g id="Groupe_82" data-name="Groupe 82">
      <path id="Tracé_55" data-name="Tracé 55" d="M176.556,156.3a.6.6,0,0,0-.267-.267l-4.761-2.381a.6.6,0,0,0-.861.533v4.761a.6.6,0,0,0,.861.533l4.761-2.381A.6.6,0,0,0,176.556,156.3Zm-4.7,1.683v-2.835l2.835,1.418Z" transform="translate(-170.666 -153.587)" fill="#fff"/>
    </g>
  </g>
</svg>
