<svg xmlns="http://www.w3.org/2000/svg" width="27.253" height="24.983" viewBox="0 0 27.253 24.983">
  <g id="image_2_" data-name="image (2)" transform="translate(0 -0.492)">
    <path id="Tracé_213" data-name="Tracé 213" d="M7.1,160.376a4.252,4.252,0,0,1-4.022-2.9l-.04-.131a4.145,4.145,0,0,1-.2-1.231v-7.742l-2.755,9.2A2.579,2.579,0,0,0,1.891,160.7l17.559,4.7a2.6,2.6,0,0,0,.654.084,2.532,2.532,0,0,0,2.454-1.857l1.023-3.253Zm0,0" transform="translate(0 -140.011)" fill="#3c4d5d"/>
    <path id="Tracé_214" data-name="Tracé 214" d="M151.592,69.035a2.271,2.271,0,1,0-2.271-2.271A2.273,2.273,0,0,0,151.592,69.035Zm0,0" transform="translate(-141.372 -60.593)" fill="#3c4d5d"/>
    <path id="Tracé_215" data-name="Tracé 215" d="M105.193.492H88.159A2.843,2.843,0,0,0,85.32,3.331V15.822a2.843,2.843,0,0,0,2.839,2.839h17.034a2.843,2.843,0,0,0,2.839-2.839V3.331A2.843,2.843,0,0,0,105.193.492ZM88.159,2.763h17.034a.568.568,0,0,1,.568.568v8.061l-3.587-4.186a2.034,2.034,0,0,0-1.523-.7,1.985,1.985,0,0,0-1.517.717l-4.218,5.062-1.374-1.371a1.993,1.993,0,0,0-2.816,0L87.592,14.05V3.331A.568.568,0,0,1,88.159,2.763Zm0,0" transform="translate(-80.779)" fill="#3c4d5d"/>
  </g>
</svg>
