<svg xmlns="http://www.w3.org/2000/svg" width="19.978" height="19.978" viewBox="0 0 19.978 19.978">
  <g id="price-tag_1_" data-name="price-tag (1)" transform="translate(0 0)">
    <path id="Tracé_20" data-name="Tracé 20" d="M175.462,122.179l2.759-8.277a.585.585,0,0,0-1.111-.37l-2.759,8.277a.585.585,0,1,0,1.111.37Z" transform="translate(-167.519 -108.717)" fill="#ef6032"/>
    <path id="Tracé_21" data-name="Tracé 21" d="M266.289,192.715a1.756,1.756,0,1,0-1.756-1.756A1.758,1.758,0,0,0,266.289,192.715Zm0-2.341a.585.585,0,1,1-.585.585A.586.586,0,0,1,266.289,190.374Z" transform="translate(-254.211 -181.82)" fill="#ef6032"/>
    <path id="Tracé_22" data-name="Tracé 22" d="M96.583,189.2a1.756,1.756,0,1,0,1.756,1.756A1.758,1.758,0,0,0,96.583,189.2Zm0,2.341a.585.585,0,1,1,.585-.585A.586.586,0,0,1,96.583,191.544Z" transform="translate(-91.127 -181.82)" fill="#ef6032"/>
    <path id="Tracé_23" data-name="Tracé 23" d="M19.861,7.258,17.82,4.537l.08-.557a.585.585,0,0,0-.166-.5L16.493,2.241,17.734,1a.585.585,0,1,0-.828-.828L15.665,1.413,14.423.172a.586.586,0,0,0-.5-.166L8.133.834A.585.585,0,0,0,7.8,1L.628,8.173a2.148,2.148,0,0,0,0,3.035l6.07,6.07a2.141,2.141,0,0,0,.4.317v.237a2.149,2.149,0,0,0,2.146,2.146h8.584a2.149,2.149,0,0,0,2.146-2.146V7.609a.585.585,0,0,0-.117-.351ZM1.455,10.38a.977.977,0,0,1,0-1.38L8.491,1.965,13.8,1.206l1.035,1.035-.828.828L13.6,2.655a.585.585,0,0,0-.828.828l1.655,1.655a.585.585,0,1,0,.828-.828L14.837,3.9l.828-.828L16.7,4.1l-.759,5.311L8.905,16.45a.976.976,0,0,1-1.38,0Zm17.352,7.452a.977.977,0,0,1-.975.975H9.248a.977.977,0,0,1-.973-.9,2.138,2.138,0,0,0,1.457-.626L16.906,10.1a.585.585,0,0,0,.166-.331l.514-3.6L18.808,7.8Z" fill="#ef6032"/>
  </g>
</svg>
