<svg xmlns="http://www.w3.org/2000/svg" width="12.578" height="12.578" viewBox="0 0 12.578 12.578">
  <g id="right-arrow_14_" data-name="right-arrow (14)" transform="translate(41.814 34.948) rotate(135)">
    <g id="Groupe_62" data-name="Groupe 62" transform="translate(0 41.346)">
      <path id="Tracé_24" data-name="Tracé 24" d="M9.555,45.008,6.048,41.5a.533.533,0,0,0-.752,0l-.318.318a.527.527,0,0,0-.155.376.538.538,0,0,0,.155.38l2.046,2.05H.525A.519.519,0,0,0,0,45.148v.45a.539.539,0,0,0,.525.546H7.047L4.978,48.206a.526.526,0,0,0,0,.746l.318.317a.533.533,0,0,0,.752,0l3.507-3.507a.536.536,0,0,0,0-.754Z" transform="translate(0 -41.346)" fill="#f3bbc3"/>
    </g>
  </g>
</svg>
