<svg id="subscribe" xmlns="http://www.w3.org/2000/svg" width="20" height="20" viewBox="0 0 20 20">
  <path id="Tracé_30" data-name="Tracé 30" d="M17.461,0H2.539A2.542,2.542,0,0,0,0,2.539V8.008a2.542,2.542,0,0,0,2.539,2.539h5.7v1.561l-1.127.939a3.382,3.382,0,0,0-.4,4.8L8.383,19.8a.586.586,0,0,0,.445.2h8.2a.586.586,0,0,0,.414-.172,4.557,4.557,0,0,0,1.344-3.243v-2.64A2.151,2.151,0,0,0,16.641,11.8H11.758v-1.25h5.7A2.542,2.542,0,0,0,20,8.008V2.539A2.542,2.542,0,0,0,17.461,0ZM12.93,12.969v1.367a.586.586,0,1,0,1.172,0V12.969h1.172v1.367a.586.586,0,1,0,1.172,0V12.969h.2a.978.978,0,0,1,.977.977v2.64a3.39,3.39,0,0,1-.84,2.243H9.1L7.6,17.084a2.21,2.21,0,0,1,.263-3.136l.377-.314v1.483a.586.586,0,1,0,1.172,0V8.867a.586.586,0,0,1,1.172,0v5.469a.586.586,0,1,0,1.172,0V12.969Zm5.9-4.961a1.369,1.369,0,0,1-1.367,1.367h-5.7V8.867a1.749,1.749,0,0,0-.368-1.074A1.9,1.9,0,0,0,12.3,6.152V2.93a.586.586,0,0,0-1.172,0V6.152c0,.225-.064.514-.561.765a1.112,1.112,0,0,1-.51.115.992.992,0,0,1-.549-.155.789.789,0,0,1-.465-.721V2.93a.586.586,0,0,0-1.172,0V6.155a1.9,1.9,0,0,0,.8,1.562,1.75,1.75,0,0,0-.43,1.15v.508h-5.7A1.369,1.369,0,0,1,1.172,8.008V2.539A1.369,1.369,0,0,1,2.539,1.172H17.461a1.369,1.369,0,0,1,1.367,1.367Z" fill="#1376a3"/>
  <path id="Tracé_31" data-name="Tracé 31" d="M66.636,62.469c-.574-.212-1.109-.442-1.273-.514a.323.323,0,0,1-.114-.3.468.468,0,0,1,.371-.374,1.361,1.361,0,0,1,1.193.2.586.586,0,0,0,.984-.63,2.347,2.347,0,0,0-2.515-.692,1.646,1.646,0,0,0-1.193,1.329,1.488,1.488,0,0,0,.664,1.473.585.585,0,0,0,.081.044c.027.012.671.3,1.4.566.2.076.674.289.612.635a.788.788,0,0,1-.816.531,1.627,1.627,0,0,1-1.2-.5.586.586,0,1,0-.868.787,2.816,2.816,0,0,0,2.064.886A1.93,1.93,0,0,0,68,64.41a1.762,1.762,0,0,0-1.36-1.941Z" transform="translate(-61.319 -57.703)" fill="#1376a3"/>
  <path id="Tracé_32" data-name="Tracé 32" d="M348.288,62.568a1.655,1.655,0,0,0,.267-.946A1.684,1.684,0,0,0,346.861,60H345.53a.586.586,0,0,0-.586.586v4.686a.586.586,0,0,0,.587.586l1.6,0a1.847,1.847,0,0,0,1.159-3.285Zm-2.172-1.4h.776a.493.493,0,0,1,0,.985h-.776Zm1.013,3.51-1.013,0V63.331h1.013a.676.676,0,1,1,0,1.352Z" transform="translate(-331.47 -57.656)" fill="#1376a3"/>
</svg>
