<svg id="upload-big-arrow_1_" data-name="upload-big-arrow (1)" xmlns="http://www.w3.org/2000/svg" width="13.409" height="12.026" viewBox="0 0 13.409 12.026">
  <g id="Groupe_394" data-name="Groupe 394" transform="translate(3.045)">
    <path id="Tracé_256" data-name="Tracé 256" d="M104.986,27.929h1.357v4.026a.739.739,0,0,0,.739.739H109.1a.739.739,0,0,0,.739-.739V27.929H111.2a.555.555,0,0,0,.392-.948l-3.1-3.105a.556.556,0,0,0-.785,0l-3.1,3.105a.555.555,0,0,0,.392.948Z" transform="translate(-104.431 -23.713)" fill="#1376a3"/>
  </g>
  <g id="Groupe_395" data-name="Groupe 395" transform="translate(0 5.724)">
    <path id="Tracé_257" data-name="Tracé 257" d="M12.742,220.029a.667.667,0,0,0-.666.667v2.788A1.517,1.517,0,0,1,10.561,225H2.848a1.516,1.516,0,0,1-1.515-1.515V220.7A.667.667,0,1,0,0,220.7v2.788a2.851,2.851,0,0,0,2.848,2.848h7.713a2.851,2.851,0,0,0,2.848-2.848V220.7A.667.667,0,0,0,12.742,220.029Z" transform="translate(0 -220.029)" fill="#1376a3"/>
  </g>
</svg>
