<svg xmlns="http://www.w3.org/2000/svg" width="259.034" height="44.391" viewBox="0 0 259.034 44.391">
  <g id="Groupe_92" data-name="Groupe 92" transform="translate(70.29 168)">
    <path id="Tracé_90" data-name="Tracé 90" d="M208.264,446.79v20.684h-2.82V449.569l-8.717,15.844-9.159-13.974v16.03H186.3V446.79h2.251l9.242,14.04,7.734-14.04Z" transform="translate(-256.59 -614.195)" fill="#f16032"/>
    <path id="Tracé_91" data-name="Tracé 91" d="M265.51,467.5h-3.415l-.149-.359-1.293-3.3-.318-.756H249.45l-.33.756-1.346,3.3-.14.359H246.25l.293-.731,7.59-18.735.462-1.193h2.8l.14.355,7.7,19.573Zm-15.564-5.707h9.911l-.264-.727-4.65-11.81-4.918,12.326Z" transform="translate(-291.784 -614.225)" fill="#f16032"/>
    <path id="Tracé_92" data-name="Tracé 92" d="M312.517,462.673c0,3.948-4.129,5.368-7.961,5.368-4.018,0-6.913-1.672-7.726-4.98l1.995-.413c.491,2.2,2.118,4.129,6.264,4.129,2.478,0,4.65-1.507,4.666-3.824s-2.478-3.089-6.1-4.394c-3.192-1.156-7.065-2.387-7.065-6.231,0-2.114,2.2-5.459,7.433-5.459,3.514,0,6.194,1.313,7.817,3.807l-1.867.714a6.939,6.939,0,0,0-5.909-3.419c-4.447,0-5.03,3.159-4.774,4.278.475,2.065,2.672,2.577,6.153,3.836C308.735,457.276,312.517,459.163,312.517,462.673Z" transform="translate(-321.337 -614.242)" fill="#f16032"/>
    <path id="Tracé_93" data-name="Tracé 93" d="M354.261,446.64l-.413,1.272h-7.235v19.47h-3.138v-19.47H336.2l-.413-1.272Z" transform="translate(-344.349 -614.107)" fill="#f16032"/>
    <path id="Tracé_94" data-name="Tracé 94" d="M389.072,466.132h11.182l-1.012,1.35H386V446.81h14.519l-1.239,1.276H389.072v5.934h0v.987H400.1l-1.012,1.268h-10.01v1.582h0v1.982h0Z" transform="translate(-373.826 -614.207)" fill="#f16032"/>
    <path id="Tracé_95" data-name="Tracé 95" d="M441.816,461.412c-.289.153-.562.281-.562.281l3.262,4.935.549.826h-3.857l-.173-.277-2.478-3.919a1.685,1.685,0,0,0-1.454-.776h-5.567v4.955H428.4V446.79h8.147c4.724,0,9.019,3.46,9.019,7.73v.231A7.254,7.254,0,0,1,441.816,461.412Zm.582-6.607v-.256c0-3.716-2.164-6.706-5.868-6.706h-4.993v13.664h5.013c3.679-.017,5.847-3.014,5.847-6.719Z" transform="translate(-398.717 -614.195)" fill="#f16032"/>
    <path id="Tracé_96" data-name="Tracé 96" d="M590.1,464.579l.917.95a10.981,10.981,0,0,1-5.781,1.652c-6.017-.008-11.24-4.8-11.24-10.708s5.24-10.7,11.253-10.7a10.972,10.972,0,0,1,6.413,2.065l-1.28,1.317a8.932,8.932,0,0,0-6.913-1.941c-4.819.743-7.272,5.5-6.289,10.609s5.034,8.672,9.853,7.912A8.107,8.107,0,0,0,590.1,464.579Z" transform="translate(-484.193 -613.597)" fill="#f16032"/>
    <path id="Tracé_97" data-name="Tracé 97" d="M638.235,456.449a10.554,10.554,0,1,1-10.584-10.7A10.849,10.849,0,0,1,638.235,456.449Zm-3.155-1.511c-.9-5.108-4.629-8.469-9.085-7.73s-6.566,5.5-5.661,10.608,4.505,8.672,8.948,7.912S635.989,460.025,635.081,454.938Z" transform="translate(-509.512 -613.585)" fill="#f16032"/>
    <path id="Tracé_98" data-name="Tracé 98" d="M688.909,467.5h-3.423l-.149-.359-1.288-3.3-.318-.756H672.842l-.322.756-1.346,3.3-.141.359H669.65l.289-.731,7.594-18.735L678,446.84h2.791l.145.355,7.7,19.573Zm-15.564-5.707h9.911l-.265-.727-4.654-11.81-4.914,12.326Z" transform="translate(-540.345 -614.225)" fill="#f16032"/>
    <path id="Tracé_99" data-name="Tracé 99" d="M733.789,464.155l.917.946a10.984,10.984,0,0,1-5.781,1.652c-6.012,0-11.244-4.8-11.244-10.7s5.232-10.7,11.244-10.7a10.963,10.963,0,0,1,6.413,2.065l-1.28,1.317a8.9,8.9,0,0,0-6.913-1.941c-4.819.743-7.268,5.5-6.281,10.608s5.025,8.672,9.845,7.912A8.106,8.106,0,0,0,733.789,464.155Zm23.5-18.281v20.771h-3.159v-8.176a.186.186,0,0,0-.252-.161,13.818,13.818,0,0,1-4.79.95h-.173a21.822,21.822,0,0,1-6.363-1.115.19.19,0,0,0-.244.165v8.337h-3.155v-8.973a.173.173,0,0,0-.136-.165c-3.258-.908-5.62-1.454-10.538.6l-.8-1.16c5.2-2.176,7.92-1.734,11.232-.863a.19.19,0,0,0,.244-.165V445.874H742.3v10.67a.174.174,0,0,0,.132.165,21.89,21.89,0,0,0,6.508,1.239,12.948,12.948,0,0,0,5.182-1.144V445.866h2.7Z" transform="translate(-568.541 -613.35)" fill="#f16032"/>
    <path id="Tracé_100" data-name="Tracé 100" d="M509.8,469.479c-.291-2.769-.558-5.647-.837-9.027l-1.075-.239-.006.031c-1.226-.237-2.461-.521-3.655-.795l-1.073-.245-1.547-.35,2.967-1.279,3.949,1.6-.035.117,1.44.32.031.379c.29,3.537.565,6.518.866,9.383Z" transform="translate(-441.695 -620.527)" fill="#f16032"/>
    <path id="Tracé_101" data-name="Tracé 101" d="M505.417,468.832a.629.629,0,0,1-.279-.071c-.044-.022-.1-.051-.165-.093-.11-.067-.263-.168-.455-.3-.36-.245-.859-.6-1.4-.992-.966-.7-2.295-1.694-3.129-2.383l-.766-.633.958-.263c.374-.1.755-.21,1.123-.313,3.125-.878,6.354-1.785,9.706-1.3q.29-.244.584-.48l.035-.028.039-.022c.578-.32,1.168-.637,1.74-.943,1.1-.59,2.237-1.2,3.332-1.862l.955-2.916,1.411.412c-.157-.643-.343-1.285-.526-1.913-.122-.421-.247-.851-.364-1.284-1.183.567-2.279,1.067-3.521,1.634l-2.425,1.14-2.311-9.656,1-.24,2.016,8.423,1.286-.6c1.433-.654,2.671-1.218,4.068-1.9l.575-.28.153.62c.152.618.335,1.248.512,1.858.268.923.545,1.877.732,2.842l.161.831-2.1-.613-.763,2.328-.162.1c-1.17.716-2.377,1.364-3.545,1.99-.555.3-1.129.605-1.688.915-1.389,1.122-2.737,2.4-4.04,3.63-.781.738-1.588,1.5-2.4,2.23h0A.52.52,0,0,1,505.417,468.832Zm-3.993-4.008c1.376,1.072,3.226,2.4,3.922,2.86.711-.644,1.419-1.315,2.107-1.965.811-.767,1.638-1.55,2.486-2.306a15.663,15.663,0,0,0-3.655.222,46.032,46.032,0,0,0-4.7,1.146Z" transform="translate(-440.292 -613.925)" fill="#f16032"/>
    <path id="Tracé_102" data-name="Tracé 102" d="M526.346,468.44a7.349,7.349,0,0,1-.516,1.97,11.228,11.228,0,0,1-.983,1.73c-.335.574-.677,1.148-1.037,1.714s-.735,1.119-1.14,1.652l-.091-.05c.26-.615.529-1.239.772-1.842l.756-1.842a10.336,10.336,0,0,1,.826-1.829,5.9,5.9,0,0,1,1.346-1.553Z" transform="translate(-454.006 -626.876)" fill="#f16032"/>
    <path id="Tracé_103" data-name="Tracé 103" d="M504.493,452.81c.153-.669.3-1.321.413-1.953l.384-1.85a7.122,7.122,0,0,1,.256-.826l.273-.826.553-1.652v.322a.459.459,0,0,0,.173.252.345.345,0,0,0,.07.045h.037l.083.025h0l-.157.025-.359.078-.743.182-1.491.413-2.99.847c-2,.566-3.989,1.144-6.025,1.652l.066-.983c1.548.6,3.081,1.214,4.608,1.842l1.148.462,1.189.632C502.8,451.938,503.63,452.376,504.493,452.81Zm0,0-2.321-.578-1.239-.306-1.239-.475c-1.681-.619-3.357-1.259-5.021-1.908l-1.524-.595,1.594-.388c1.99-.487,3.985-1.065,5.979-1.627l3-.851,1.507-.413.772-.19c.128-.029.26-.058.413-.083.07,0,.14-.029.223-.037h.322l.1.033.05.021a.516.516,0,0,1,.082.054.566.566,0,0,1,.19.273l.045.161-.058.157-.657,1.825-.326.908c-.12.293-.19.632-.334.9Z" transform="translate(-436.729 -613.356)" fill="#f16032"/>
    <path id="Tracé_105" data-name="Tracé 105" d="M345.4,10.967h-1.032V5.277l-3.739,1.261-.33-.978,5.1-1.72Z" transform="translate(-270.064 -170.258)" fill="#f16032"/>
    <path id="Tracé_106" data-name="Tracé 106" d="M349.89,27.809l-3.75-3.419,4.365,2.589Z" transform="translate(-273.494 -182.322)" fill="#f16032"/>
    <path id="Tracé_107" data-name="Tracé 107" d="M356.679,523.14l.413,1.792h-3.167v3.58h3.151v1.734h-3.151v4.836h-1.97v-4.836h-.735v-1.734h.735v-5.368Z" transform="translate(-353.408 -659.017)" fill="#f3bbc3"/>
    <path id="Tracé_108" data-name="Tracé 108" d="M371.686,523.14v11.942H369.77V523.14Z" transform="translate(-364.298 -659.017)" fill="#f3bbc3"/>
    <path id="Tracé_109" data-name="Tracé 109" d="M380.006,522.58l6.227,7.375v-7.177h1.9v12.169h-.322l-6.248-7.483v7.289H379.61V522.58Z" transform="translate(-370.074 -658.689)" fill="#f3bbc3"/>
    <path id="Tracé_110" data-name="Tracé 110" d="M408.147,523.225a5.956,5.956,0,0,1,2.6.5,6.153,6.153,0,0,1,3.473,5.55,5.67,5.67,0,0,1-3.716,5.459,6.8,6.8,0,0,1-2.478.413H405.5V523.225Zm-.322,10.113a4.756,4.756,0,0,0,1.52-.194,4.059,4.059,0,0,0,2.849-3.923,4.166,4.166,0,0,0-3.151-4.08A4.878,4.878,0,0,0,407.68,525h-.268v8.341Z" transform="translate(-385.273 -659.065)" fill="#f3bbc3"/>
    <path id="Tracé_111" data-name="Tracé 111" d="M442.117,523.14l2.036,4.315,1.9-4.315h2.065l-3.064,6.57v5.368h-1.9v-5.389l-3.114-6.537Z" transform="translate(-405.55 -659.017)" fill="#f3bbc3"/>
    <path id="Tracé_112" data-name="Tracé 112" d="M472.675,528.6a6.429,6.429,0,0,1-2.023,4.6,6.255,6.255,0,0,1-10.522-4.637A6.569,6.569,0,0,1,461.9,524.2a6.1,6.1,0,0,1,4.439-1.879,6.326,6.326,0,0,1,6.335,6.285Zm-10.456,0a4.184,4.184,0,1,0,8.358.033,4.186,4.186,0,1,0-8.358-.033Z" transform="translate(-417.344 -658.536)" fill="#f3bbc3"/>
    <path id="Tracé_113" data-name="Tracé 113" d="M496.253,523.14v7.966a3.171,3.171,0,0,0,.215,1.507,1.813,1.813,0,0,0,3.221-.145,3.98,3.98,0,0,0,.2-1.809v-7.52H501.8v7.751a5.343,5.343,0,0,1-.359,2.383,3.605,3.605,0,0,1-3.365,2.065,3.717,3.717,0,0,1-3.419-2.168,5.019,5.019,0,0,1-.339-2.325V523.14Z" transform="translate(-437.416 -659.017)" fill="#f3bbc3"/>
    <path id="Tracé_114" data-name="Tracé 114" d="M520.012,523.128a5.093,5.093,0,0,1,2.56.52,3.324,3.324,0,0,1,1.718,3.006,3.787,3.787,0,0,1-2.754,3.634l2.808,3.832-1.557,1.057-3.535-4.815v4.707H517.32V523.128Zm0,5.48a2.584,2.584,0,0,0,1.111-.128,1.871,1.871,0,0,0,1.094-1.842c0-1.09-.719-1.739-1.937-1.739h-1v3.716Z" transform="translate(-450.918 -659.005)" fill="#f3bbc3"/>
    <path id="Tracé_115" data-name="Tracé 115" d="M554.613,524.642a8.624,8.624,0,0,0-2.721-.595,1.6,1.6,0,0,0-1.685,1.54,1.462,1.462,0,0,0,.591,1.164,7.4,7.4,0,0,0,1.755.859,6.556,6.556,0,0,1,2.308,1.342,3.37,3.37,0,0,1,.991,2.366,3.78,3.78,0,0,1-4.01,3.655,9.262,9.262,0,0,1-3.832-.88l.52-1.652a9.174,9.174,0,0,0,3.3.772,1.885,1.885,0,0,0,2.065-1.846,1.491,1.491,0,0,0-.785-1.342,8.357,8.357,0,0,0-1.54-.735,10.825,10.825,0,0,1-2.329-1.326,3.018,3.018,0,0,1-1.036-2.325c0-1.9,1.573-3.242,3.811-3.242a8.634,8.634,0,0,1,3.3.719Z" transform="translate(-468.935 -658.583)" fill="#f3bbc3"/>
    <path id="Tracé_116" data-name="Tracé 116" d="M573.061,523.137a6.1,6.1,0,0,1,1.5.145,3.237,3.237,0,0,1,2.42,3.221,3.452,3.452,0,0,1-2.065,3.225,6.362,6.362,0,0,1-2.2.3h-.326v5.05H570.48V523.137Zm-.339,5.03c1.379,0,2.184-.607,2.184-1.718,0-1.036-.644-1.557-1.916-1.557h-.611v3.275Z" transform="translate(-482.126 -659.014)" fill="#f3bbc3"/>
    <path id="Tracé_117" data-name="Tracé 117" d="M590.541,522.23l4.427,12.318h-2.094l-.95-2.651h-3.151l-.859,2.651H585.8l.9-2.651h-.607l.59-1.734h.607l2.7-7.933Zm-1.218,7.933h1.986l-1.037-2.891Z" transform="translate(-491.12 -658.483)" fill="#f3bbc3"/>
    <path id="Tracé_118" data-name="Tracé 118" d="M614.008,523.128a5.093,5.093,0,0,1,2.56.52,3.332,3.332,0,0,1,1.718,3.006,3.786,3.786,0,0,1-2.758,3.634l2.812,3.832-1.557,1.057-3.531-4.815v4.707H611.32V523.128Zm0,5.48a2.585,2.585,0,0,0,1.111-.128,1.875,1.875,0,0,0,1.09-1.842c0-1.09-.714-1.739-1.933-1.739h-1v3.716Z" transform="translate(-506.102 -659.005)" fill="#f3bbc3"/>
    <path id="Tracé_119" data-name="Tracé 119" d="M634.49,523.14v5.1l2.812-5.1h2.04l-3.188,5.723,3.3,5.6-1.652.826-3.3-5.657v5.443H632.64V523.14Z" transform="translate(-518.618 -659.017)" fill="#f3bbc3"/>
  </g>
</svg>
